<svg width="911" height="349" viewBox="0 0 911 349" fill="none" xmlns="http://www.w3.org/2000/svg">
<path d="M72.5 88.55L36.17 90.9301L70.84 121.79L111.17 111.5L128.61 113.23L177.83 92.44L72.5 88.55Z" fill="#DDDDDC"/>
<path d="M36.17 90.93L77.17 73.67L115.67 86.17L152.42 78.06L177.83 92.44L115.67 97.33L77.17 106L36.17 90.93Z" fill="#ECECEB"/>
<path d="M313.59 19.17L267.04 27.8L337.33 41.1901L378.04 16.8L337.74 23.63L313.59 19.17Z" fill="#DDDDDC"/>
<path d="M267.04 27.8L314.44 10.55L340.1 19.17L378.04 16.8L340.1 27.8H267.04Z" fill="#ECECEB"/>
<path d="M820.11 115.44L866.67 124.06L804.45 136.8L754.63 117.92L795.97 119.89L820.11 115.44Z" fill="#DDDDDC"/>
<path d="M866.67 124.06L819.27 106.81L798.12 113.92L754.63 117.92L793.61 124.06H866.67Z" fill="#ECECEB"/>
<path d="M227.26 101.25C243.044 101.25 255.84 88.4544 255.84 72.6701C255.84 56.8858 243.044 44.0901 227.26 44.0901C211.476 44.0901 198.68 56.8858 198.68 72.6701C198.68 88.4544 211.476 101.25 227.26 101.25Z" fill="#C0DB8F"/>
<path d="M390.67 199.34L438 243L637 228.67L546.67 168.14L390.67 199.34Z" fill="#CFCFCD"/>
<path d="M428 156.67L416.67 215.34L526 192.67L455.33 150.34L428 156.67Z" fill="#A3A3A3"/>
<path d="M428.33 150.34L396.33 153.67L333.33 227L422.67 230L416.67 215.34L433.19 166.39L428.33 150.34Z" fill="#CFCFCD"/>
<path d="M599.67 199.34L526 192.67L433.19 166.39L586 166.34L599.67 199.34Z" fill="#8F8F8F"/>
<path d="M616 161L664 170.67L689.33 210.17L577.33 190L580 180.34L616 161Z" fill="#8F8F8F"/>
<path d="M531.33 149.34L598 136L664 170.67L580 180.34L433.19 166.39L396.33 153.67L431.03 137.95L531.33 149.34Z" fill="#A3A3A3"/>
<path d="M541.33 125.67L598 136L520.67 161L431.03 137.95L447.44 121.36L541.33 125.67Z" fill="#DDDDDC"/>
<path d="M566 117L498.12 104.48L447.44 121.36L497.33 133.34L598 136L566 117Z" fill="#C4C4C4"/>
<path d="M542.46 110.6L566 117L598 136L559.33 70L542.46 110.6Z" fill="#CFCFCD"/>
<path d="M559.33 70H531L498.12 104.48L566 117L559.33 70Z" fill="#ECECEB"/>
<path d="M683.19 200.59L580 180.34L526 192.67L679 240L693.08 222.09L683.19 200.59Z" fill="#C4C4C4"/>
<path d="M556.67 279.67L461.21 227.34L416.67 215.34L300 231.67L416 300.92L556.67 279.67Z" fill="#A3A3A3"/>
<path d="M771.33 259.34L751 231.67L683.19 200.59L461.21 227.34L428 253.17L520.7 254.84L771.33 259.34Z" fill="#8F8F8F"/>
<path d="M221.33 279.67L98 281.67L1 263.67L300 231.67L356.51 241.2L221.33 279.67Z" fill="#C4C4C4"/>
<path d="M461.21 300.92L677.54 306.13L792 327.67L901 273L792 241.67L419.53 251.53L461.21 300.92Z" fill="#CFCFCD"/>
<path d="M720.67 262L858.8 294.17L901 273L792 241.67L669 250.92L720.67 262Z" fill="#C4C4C4"/>
<path d="M159 299.67L141 321.67L393 348.67L792 327.67L474.01 267.84L428 253.17L159 299.67Z" fill="#DDDDDC"/>
<path d="M419.53 251.53L300 231.67L98 281.67L141 321.67L474.01 267.84L419.53 251.53Z" fill="#CFCFCD"/>
<path d="M751 231.67L356.51 241.2L474.01 267.84L792 241.67L751 231.67Z" fill="#DDDDDC"/>
<path d="M649.33 84.1699L643.73 73.8199L607.17 121.34L633.17 119.34L638.35 107.94L641 116.09L651.83 109.17L649.33 84.1699Z" fill="#3F8F6F"/>
<path d="M651.83 70.56L635.67 49.34L592.67 93.34L643.73 73.82L651.83 70.56Z" fill="#74C7A5"/>
<path d="M671 46.34L630.33 23.5L585.5 38L609.67 44.42L629.17 34.92L620.17 45.17L635.67 49.34L678.23 77.17L671 46.34Z" fill="#74C7A5"/>
<path d="M690 42.67L673.5 67.23L664 60.92L667.33 27L707.23 0L690.5 32.67L690 42.67Z" fill="#54B08B"/>
<path d="M700.67 54.5L704.26 29.84L694.33 27L707.23 21.84V0L669.67 59.17L700.67 54.5Z" fill="#3F8F6F"/>
<path d="M688.33 57L664.32 57.62L635.67 49.34L644.83 77.17L662 81.17L679 68.34L688.33 57Z" fill="#54B08B"/>
<path d="M689.5 123L678.46 120.24L668.83 94.67L684.33 90L689.89 105.65L689.5 123Z" fill="#DDDDDC"/>
<path d="M717.5 81.59L719.33 89.17L738.58 115L703 104.84L699.25 94.34L696.33 101.5L684.33 90L708.08 70.09L717.5 81.59Z" fill="#35785E"/>
<path d="M719.33 60.92L729.29 60.55L765 77.17L735 86.34L724 72.34L724.67 87.84L719.33 89.17L709.17 77.17V90H684.33L668.83 76.01L685.83 62L719.33 60.92Z" fill="#3F8F6F"/>
<path d="M729.29 60.55L680.86 69.34L714.5 53.67L729.29 60.55Z" fill="#35785E"/>
<path d="M701.5 47.67L703.6 34.42L754.5 57L714.5 53.67L701.5 47.67Z" fill="#54B08B"/>
<path d="M673.5 92.1699L668.83 76.0099L643.73 73.8199L647.33 125.84L651.83 150.17L673.5 92.1699Z" fill="#74C7A5"/>
<path d="M692.22 136.17L681.5 128.67L678.46 120.24L689.89 105.65L700.25 133.46L692.22 136.17Z" fill="#CFCFCD"/>
<path d="M697 152.34L689.36 153.49L681.5 128.67L700.25 133.46L704.26 142.79L697 152.34Z" fill="#C4C4C4"/>
<path d="M706.17 171.84L691.21 159.17L689.36 153.49L704.26 142.79L710 159.17L706.17 171.84Z" fill="#DDDDDC"/>
<path d="M708.83 181.67L697 184.34L691.21 159.17H710L723.33 177.34L708.83 181.67Z" fill="#CFCFCD"/>
<path d="M710.17 201.17L699.33 207.99L697 184.34L720.33 166.34L725.63 194.42L710.17 201.17Z" fill="#A3A3A3"/>
<path d="M705.91 211.38L699.33 207.99L699.68 188.64L725.63 194.42L728 213.5L705.91 211.38Z" fill="#A3A3A3"/>
<path d="M684.33 90L674.17 120.5L665.67 117L670.33 129.84L651.83 150.17L668.83 76.01L684.33 90Z" fill="#54B08B"/>
<path d="M703.6 34.42L714.5 53.67L668.83 76.01L664.32 57.62L703.6 34.42Z" fill="#74C7A5"/>
<path d="M203.5 219.42L213.13 206.05L233.75 210.67L234.74 238.65L193.44 245.17L203.5 219.42Z" fill="#9CA0A1"/>
<path d="M173.75 164.92L182.94 155.92L210.75 170.17L213.13 206.05L173.75 207.92V164.92Z" fill="#DDDDDC"/>
<path d="M152.75 204.92L168.21 249.67L193.44 245.17L213.13 206.05L152.75 204.92Z" fill="#C4C4C4"/>
<path d="M165.5 217.92L166 225.8L168.21 249.67L155.01 252.63L135 222.67L161.5 206.67L165.5 217.92Z" fill="#9CA0A1"/>
<path d="M79.75 236.92L68.92 222.31L114 210.67L99.5 241.92L79.75 236.92Z" fill="#9CA0A1"/>
<path d="M107 229.67L68.92 222.31L47.72 258.67H85.57L107 229.67Z" fill="#8F8F8F"/>
<path d="M139.5 219.05L166 225.8L213.13 206.05L196.33 204.67L142.25 204L139.5 219.05Z" fill="#CFCFCD"/>
<path d="M182.94 155.92L166.25 156.42L155.67 172.54L170.92 195.67L180.88 178.02L182.94 155.92Z" fill="#ECECEB"/>
<path d="M149.33 194L163.33 212.67L196.33 204.67L180.88 178.02L145.5 179.44L149.33 194Z" fill="#C4C4C4"/>
<path d="M158.88 175.34L160.67 186.34L163.33 212.67L121.18 207.7L124 195.67L127.17 182.34L158.88 175.34Z" fill="#9CA0A1"/>
<path d="M127.17 182.34L160.67 186.34L180.88 178.02L155.67 172.54L127.17 182.34Z" fill="#DDDDDC"/>
<path d="M124.67 200L111.33 213.34L116.39 261.52L155.01 252.63L149.33 201.67L124.67 200Z" fill="#858686"/>
<path d="M117 203.17L105 201.67L85.5699 258.67L116.39 261.52L122 210.67L117 203.17Z" fill="#CFCFCD"/>
<path d="M105 201.67L122 210.67L149.33 201.67L124 195.67L105 201.67Z" fill="#DDDDDC"/>
<path d="M466.67 95.0901L497.33 133.34L566 117L494.33 70.3401L450.33 68.3401L466.67 95.0901Z" fill="#6F9D52"/>
<path d="M402.67 96.3401L405.33 127.67L497.33 133.34L468.67 56.8401L400.33 71.6701L402.67 96.3401Z" fill="#738D57"/>
<path d="M348.67 79L337.33 101.34L405.33 127.67L448.67 44L348.67 79Z" fill="#6F9D52"/>
<path d="M408 51.67L318.55 65.67L337.33 101.34L442.67 44L408 51.67Z" fill="#99C26C"/>
<path d="M441.47 69.26L397.17 280.26L413.32 277.65L450.23 71L446.42 65.67L441.47 69.26Z" fill="#54B08B"/>
<path opacity="0.1" d="M443.33 60L438.52 83.3L446.81 90.12L451 66.67L443.33 60Z" fill="#2B2B2B"/>
<path opacity="0.1" d="M405.62 240L397.17 280.26L413.32 277.65L420.11 239.66L405.62 240Z" fill="#2B2B2B"/>
<path d="M459.5 65.17L457.33 32.67L566 117L500.67 81L459.5 65.17Z" fill="#99C26C"/>
<path d="M453 54L457.33 32.67L318.55 65.67L421.67 65.34L453 54Z" fill="#C0DB8F"/>
<path d="M457.33 32.67L421.67 65.34L500.67 81L457.33 32.67Z" fill="#A0CF7F"/>
<path d="M697 253.34L681.67 262L661.67 252.4L669 238.67L691.67 241L697 253.34Z" fill="#A3A3A3"/>
<path d="M691.67 241L684.67 250L681.67 262H720.67L714.5 248.05L691.67 241Z" fill="#858686"/>
<path d="M737 150.17L771.5 153.42L783.5 196.67L790.25 231.17L768 245.17L733.22 246.51L728.5 156.46L737 150.17Z" fill="#8F8F8F"/>
<path d="M798.5 224.67L784.38 256.17L768 245.17V220.67L785.25 208.67L798.5 224.67Z" fill="#A3A3A3"/>
<path d="M785.25 208.67L783.5 220.67L784.38 256.17L825.41 251.27L802.5 201.17L785.25 208.67Z" fill="#858686"/>
<path d="M740.75 154.67L710 159.17L704.26 232.34L733.22 246.51L747.5 161.67L740.75 154.67Z" fill="#C4C4C4"/>
<path d="M710 159.17L737.5 147.67L771.5 153.42L747.5 161.67L710 159.17Z" fill="#ECECEB"/>
<path d="M783.5 196.67L768 220.67H783.5L802.5 201.17L783.5 196.67Z" fill="#C4C4C4"/>
<path d="M695 234.67L669 238.67L684.67 250L714.5 248.05L695 234.67Z" fill="#C4C4C4"/>
<path d="M820.5 247.99L831 271.25L870 264.09L857.67 234.67L821.8 231.67L820.5 247.99Z" fill="#858686"/>
<path d="M833 224.84L811.41 220.67L797.63 254.59L831 271.25L836.67 237.25L833 224.84Z" fill="#9CA0A1"/>
<path d="M811.41 220.67L846 222L857.67 234.67L836.67 237.25L811.41 220.67Z" fill="#C4C4C4"/>
<path opacity="0.1" d="M431.63 295.35L545 320.42L628.81 296.96L600.95 291.72L533.17 280.49L431.63 295.35Z" fill="#2B2B2B"/>
<path d="M557.5 254.67L529.02 287.67L451 281.67V296.17L539.33 311.5L557.5 254.67Z" fill="#35785E"/>
<path d="M553.83 248.84L539.33 300V311.5L595.43 301.94L600.95 291.72L596 260.5L553.83 248.84Z" fill="#3F8F6F"/>
<path d="M536.83 260.5L511 272.92L451 281.67L539.33 300L596 284.17L536.83 260.5Z" fill="#54B08B"/>
<path d="M602.75 216.17L623.72 207.76L631.2 233.4L600.95 291.72L596 284.17L602.75 216.17Z" fill="#54B08B"/>
<path d="M521 207.92L506.42 273.59L596 284.17L623.72 207.76L521 207.92Z" fill="#74C7A5"/>
<path d="M528.75 216.17L606.75 218.87L589.75 275.17L521 264.92L528.75 216.17Z" fill="#ECECEB"/>
<path d="M492.79 282.85L547.75 290.85L534.66 293.44L482.66 284.49L492.79 282.85Z" fill="#74C7A5"/>
<path d="M569.92 244.39L590.33 246.55L589.31 250.22L569.26 247.93L569.92 244.39Z" fill="#C4C4C4"/>
<path d="M568.56 250.8L588.34 253.37L587.59 256.56L567.89 253.63L568.56 250.8Z" fill="#C4C4C4"/>
<path d="M567.6 257.49L587.03 260.11L586.23 263.39L567.1 260.16L567.6 257.49Z" fill="#C4C4C4"/>
<path d="M529.61 255.07L532.35 242.22L539.35 243.43L537.01 256.06L529.61 255.07Z" fill="#74C7A5"/>
<path d="M540.89 256.56L545.48 232.05L554.37 232.81L548.85 257.72L540.89 256.56Z" fill="#74C7A5"/>
<path d="M553.14 258.63L559.2 228.54L569.26 229.8L563.14 260.05L553.14 258.63Z" fill="#74C7A5"/>
<path d="M512.29 277.95L525.04 279.65L513.25 281.75L503.17 280.17L512.29 277.95Z" fill="#74C7A5"/>
<path d="M526.42 284.17L537 281.75L564 285.07L551.91 287.67L526.42 284.17Z" fill="#74C7A5"/>
<path opacity="0.1" d="M176.31 277.66L243.36 305.11L397.17 280.26L314.87 253.01L176.31 277.66Z" fill="#2B2B2B"/>
<path d="M222.33 209.97L254.25 209.3L280.14 232.55L226.67 235.05L222.33 209.97Z" fill="#54B08B"/>
<path d="M333.33 242L342.75 244.17L337.63 273.54L330 272.5L326.75 265.42L326 241.57L333.33 242Z" fill="#54B08B"/>
<path d="M296.17 266.67L307.38 273.54L326.75 265.42L337.63 273.54L298.5 287.6L296.17 266.67Z" fill="#3F8F6F"/>
<path d="M293.67 252.67L286 262.67L298.5 287.6L307.38 273.54L298.5 251.8L293.67 252.67Z" fill="#54B08B"/>
<path d="M261.13 236.42L255.84 262.67L256.5 265.92L265.5 268.92L268.13 239.05L261.13 236.42Z" fill="#54B08B"/>
<path d="M194.25 258.67L200.93 271.96L255.84 262.67L265.5 268.92L188.5 281.67L194.25 258.67Z" fill="#3F8F6F"/>
<path d="M208.85 233.5L192.81 243.12L188.5 281.67L200.93 271.96L208.85 233.5Z" fill="#54B08B"/>
<path d="M219.5 136.92L219.18 124.13L234.47 125.34L277.25 196.67L282.75 203.71L280 215.17L246 199.68L219.5 136.92Z" fill="#74C7A5"/>
<path d="M205.25 147.17L205.5 122.92L219.18 124.13L263.7 206.48L219.5 210.21L205.25 147.17Z" fill="#54B08B"/>
<path d="M182.25 131.92L186.25 120.92L205.5 122.92L246 203.71L208.77 201.02L182.25 131.92Z" fill="#74C7A5"/>
<path d="M153.63 125.34L141 131.17L176.75 166.92L153.63 125.34Z" fill="#35785E"/>
<path d="M162 125.92L145.5 117L141 131.17L166.25 133.67L162 125.92Z" fill="#3F8F6F"/>
<path d="M169 131.42L169.75 119.42L186.25 120.92L231.75 205.84L203 196.67L169 131.42Z" fill="#54B08B"/>
<path d="M207.75 210.21L196.33 204.67L145.5 117L169.75 119.42L215.67 199L207.75 210.21Z" fill="#74C7A5"/>
<path d="M313.75 207.8L319.88 201.5L346.25 202.67L342.03 217.2L326.75 218.92L313.75 207.8Z" fill="#74C7A5"/>
<path d="M329 203.17V205.84L326.75 218.92L277.25 210.17V196.67H293.5L329 203.17Z" fill="#3F8F6F"/>
<path d="M277.25 251.8L286 262.67L342.75 244.17L345 229L290.25 230.92L277.25 251.8Z" fill="#35785E"/>
<path d="M296.25 234.67H326.75L345 229L294.75 220.79L296.25 234.67Z" fill="#3F8F6F"/>
<path d="M241.67 233.5L246 229.8L266.3 225.9L279.75 224.17L302.5 229.8L326.75 234.67L304.75 240.92L241.67 233.5Z" fill="#54B08B"/>
<path d="M272.5 253.34L236.25 244.42V229.8H246L304.75 240.92L286 246.92L272.5 253.34Z" fill="#74C7A5"/>
<path d="M236.25 240.92L246 253.34L286 262.67V246.92L236.25 240.92Z" fill="#3F8F6F"/>
<path d="M285.75 214L302.5 212.67V229.8H286.77L281.5 216.46L285.75 214Z" fill="#74C7A5"/>
<path d="M243.5 205.84L263.7 206.48L302.5 212.67L285.97 220.79L237.22 216.46L243.5 205.84Z" fill="#54B08B"/>
<path d="M240 205.84L246 212.67L287.25 220.16L286.77 229.8L236.25 220.17L240 205.84Z" fill="#3F8F6F"/>
<path d="M246 207.67V212.67V253.34L192.56 245.31L196.33 204.67L246 207.67Z" fill="#DDDDDC"/>
<path d="M246 212.67L196.33 204.67L215.67 199L263.7 206.48L246 212.67Z" fill="#ECECEB"/>
<path d="M225.54 232.19L239.91 234.26V237.11L225.54 234.71V232.19Z" fill="#738D57"/>
<path d="M225.54 237.23L239.75 239.48V242.36L225.54 239.8V237.23Z" fill="#738D57"/>
<path d="M225.54 242.36L239.75 244.61V247.19L225.54 245.36V242.36Z" fill="#738D57"/>
<path d="M277.25 196.67L293.27 193.53L346.25 202.67L329 205.84L277.25 196.67Z" fill="#54B08B"/>
<path d="M207.5 213.31L223.69 215.8L224.06 212.98L237.88 220.17L223.13 225.61V222.69L206.88 220.3L207.5 213.31Z" fill="#738D57"/>
<path d="M200.58 229L222.39 231.77L222.32 234.15L200.59 230.95L200.58 229Z" fill="#738D57"/>
<path d="M200.4 234.15L222.2 236.92L222.14 239.3L200.19 236.07L200.4 234.15Z" fill="#738D57"/>
<path opacity="0.1" d="M125.83 300.92L158.17 316.84L207.5 302.84L167.67 290.84L125.83 300.92Z" fill="#2B2B2B"/>
<path d="M150.78 290.51L150.97 301.01L158.87 310.68L192.81 302.18L192.17 286.49L150.78 290.51Z" fill="#738D57"/>
<path d="M165.36 290.68L138.55 286.55L136.2 301.01L158.87 310.68L159.3 299.05L165.36 290.68Z" fill="#6F9D52"/>
<path d="M138.55 286.55L174.01 279.88L192.17 286.49L159.3 299.05L138.55 286.55Z" fill="#99C26C"/>
<path d="M172.53 282.98L168.33 283.12L167.67 285.71C167.842 286.65 168.274 287.524 168.917 288.231C169.561 288.938 170.39 289.451 171.31 289.71C174.51 290.58 177.31 290.38 178.95 289.38C179.695 288.852 180.294 288.143 180.69 287.32L180.55 284.98L172.53 282.98Z" fill="#6F9D52"/>
<path d="M177.22 282.01C177.22 282.01 172.72 280.54 169.09 282.38C166.09 283.9 172.28 287.52 176.04 287.3C179.43 287.11 181.04 285.78 180.42 284.3C179.68 282.58 177.22 282.01 177.22 282.01Z" fill="#A0CF7F"/>
<path d="M159.44 285.07L149.31 286.55L154.44 290.11L163.88 287.59L159.44 285.07Z" fill="#C0DB8F"/>
<path d="M172.08 282.53C173.494 282.483 174.908 282.635 176.28 282.98C177.69 283.43 178.59 284.14 178.67 284.9C178.75 285.66 176.72 286.36 174.83 286.09C172.94 285.82 170.27 284.81 169.98 283.83C169.69 282.85 172.08 282.53 172.08 282.53Z" fill="#6F9D52"/>
</svg>
