<svg width="858" height="365" viewBox="0 0 858 365" fill="none" xmlns="http://www.w3.org/2000/svg">
<g clip-path="url(#clip0)">
<path fill-rule="evenodd" clip-rule="evenodd" d="M179.49 199.16L180.82 222.83L178.76 258.35L123.88 235.41L126.1 181.04L179.49 199.16Z" fill="#8E8E8E"/>
<path fill-rule="evenodd" clip-rule="evenodd" d="M179.49 199.16L178.76 258.35L334.41 240.11L333.79 198.29L179.49 199.16Z" fill="#737373"/>
<path fill-rule="evenodd" clip-rule="evenodd" d="M118.05 166.23L179.49 196.76L242.12 188.38L341.44 180.83L296.3 163.56L118.05 166.23Z" fill="#DCDCDB"/>
<path fill-rule="evenodd" clip-rule="evenodd" d="M175.87 187.27L180.57 195.83L179.49 201.32L120.21 189.24L118.05 166.23L175.87 187.27Z" fill="#A2A2A2"/>
<path fill-rule="evenodd" clip-rule="evenodd" d="M179.49 201.32L340.88 198.29L341.44 180.83L175.87 187.27L179.49 201.32Z" fill="#9CA0A1"/>
<path opacity="0.1" fill-rule="evenodd" clip-rule="evenodd" d="M191.67 165.13L201.04 181.83L219.28 185.2L280.05 183.22L290.58 172.57L267 163.4L191.67 165.13Z" fill="black"/>
<path fill-rule="evenodd" clip-rule="evenodd" d="M265.97 159.65L270.65 159.47L272 161L266.51 161.26L265.97 159.65Z" fill="#709C53"/>
<path fill-rule="evenodd" clip-rule="evenodd" d="M265.25 158.21L269.66 158.12L268.49 156.76H264.35L265.25 158.21Z" fill="#709C53"/>
<path fill-rule="evenodd" clip-rule="evenodd" d="M214.41 144.94L212.14 122.54L251.56 121.72L254 143.51L236.71 146.3L214.41 144.94Z" fill="#9CA0A1"/>
<path fill-rule="evenodd" clip-rule="evenodd" d="M219.49 144.76L217.27 126.92L247.22 125.9L248.78 143.7L236.09 145.24L219.49 144.76Z" fill="#EBEBEA"/>
<path fill-rule="evenodd" clip-rule="evenodd" d="M197.47 145.56L191.67 165.13L210.07 181.24L210.37 171.21L207.08 165.15L197.47 145.56Z" fill="#3F8E6F"/>
<path fill-rule="evenodd" clip-rule="evenodd" d="M220.36 172.24V168.84L264.26 166.35V169.94L242.48 173.24L220.36 172.24Z" fill="#35785D"/>
<path fill-rule="evenodd" clip-rule="evenodd" d="M214.41 144.94L220.56 158.42L261.92 157.84L254 143.51L214.41 144.94Z" fill="#3F8E6F"/>
<path fill-rule="evenodd" clip-rule="evenodd" d="M229 169.49L229.72 171.75L234.82 181.24L263.18 179.62L257.06 170.32L253.73 167.97L229 169.49Z" fill="white"/>
<path fill-rule="evenodd" clip-rule="evenodd" d="M229.72 171.75L257.06 170.32L254.81 166.89L227.92 168.41L229.72 171.75Z" fill="#C3C3C3"/>
<path opacity="0.1" fill-rule="evenodd" clip-rule="evenodd" d="M196.64 264.04L257.31 249.38L311.97 262.38L249.97 276.38L196.64 264.04Z" fill="black"/>
<path fill-rule="evenodd" clip-rule="evenodd" d="M237.02 266.05L234.42 267.44L231.13 267.54L227.94 259.06L236.72 257.86L237.02 266.05Z" fill="#AC8200"/>
<path fill-rule="evenodd" clip-rule="evenodd" d="M235.42 254.97L234.42 267.44H252.49L244.6 256.07L235.42 254.97Z" fill="#8C6A00"/>
<path fill-rule="evenodd" clip-rule="evenodd" d="M267.3 250.85L263.81 256.22L265.85 264.31L269.42 264.2L275 253.09L268.75 245.13L267.3 250.85Z" fill="#AC8200"/>
<path fill-rule="evenodd" clip-rule="evenodd" d="M274.78 241.2L280.56 248.36L290.41 263.86L275.41 264.5L268.86 250.06L274.78 241.2Z" fill="#8C6A00"/>
<path fill-rule="evenodd" clip-rule="evenodd" d="M272.17 118.07L284.8 152.79L265.34 170.67L266.72 143.86L272.17 118.07Z" fill="#B49916"/>
<path fill-rule="evenodd" clip-rule="evenodd" d="M209.76 122.58L193.63 152.44L216.71 150.08L209.76 122.58Z" fill="#B49916"/>
<path fill-rule="evenodd" clip-rule="evenodd" d="M261.27 114.06L272.17 118.07L265.34 170.67L242.12 173.57L223.52 174L212.74 136.09L204.24 107.85L261.27 114.06Z" fill="#F4D75D"/>
<path fill-rule="evenodd" clip-rule="evenodd" d="M261.27 114.06L238.23 140.16L220.27 121.64L228.54 99.63L252.19 110.42L261.27 114.06Z" fill="#DEBCA4"/>
<path fill-rule="evenodd" clip-rule="evenodd" d="M264.83 40.98L279.26 54.57L270.99 74.09L264.83 40.98Z" fill="#4F5253"/>
<path fill-rule="evenodd" clip-rule="evenodd" d="M264.83 40.98L279.26 102.56L252.19 110.42L244.25 130.59L224.27 117.31L210.88 104.99L218.94 91.85L242.1 63.44L264.83 40.98Z" fill="#DEBCA4"/>
<path fill-rule="evenodd" clip-rule="evenodd" d="M218.94 91.85L224.27 117.31L252.19 110.42L244.25 130.59L224.27 117.31L201.96 108.93L218.94 91.85Z" fill="#C2977B"/>
<path fill-rule="evenodd" clip-rule="evenodd" d="M261.59 64.65L250.79 86.53L235 74.04L261.59 64.65Z" fill="#C2977B"/>
<path fill-rule="evenodd" clip-rule="evenodd" d="M250.72 68.49L254.79 85.55L250.79 86.53L246.28 70.06L250.72 68.49Z" fill="#E7C9B5"/>
<path fill-rule="evenodd" clip-rule="evenodd" d="M254.79 85.55L253.33 89.27L250.79 86.53L254.79 85.55Z" fill="#8A6651"/>
<path fill-rule="evenodd" clip-rule="evenodd" d="M252.19 110.42L224.27 117.31L244.74 132.86L252.19 110.42Z" fill="#8A6651"/>
<path fill-rule="evenodd" clip-rule="evenodd" d="M264.83 40.98L204.12 108.93L192.64 106.63L179.71 96.26L215.76 51.65L248.29 25L264.83 40.98Z" fill="#6F7173"/>
<path fill-rule="evenodd" clip-rule="evenodd" d="M248.29 25L191.41 49.52L179.71 96.26L248.29 25Z" fill="#4F5253"/>
<path fill-rule="evenodd" clip-rule="evenodd" d="M179.71 96.26L224.27 117.31L201.96 141.45" fill="#4F5253"/>
<path fill-rule="evenodd" clip-rule="evenodd" d="M223.52 179.79L213.77 206.29L243.97 217.46L272.84 218.05L265.34 182.9L247.72 180.54L223.52 179.79Z" fill="#E5C828"/>
<path fill-rule="evenodd" clip-rule="evenodd" d="M213.77 206.29L225.2 258.13L249.89 263.6L280.13 247.98L272.84 218.05L213.77 206.29Z" fill="#CCAD14"/>
<path fill-rule="evenodd" clip-rule="evenodd" d="M223.52 174L265.34 170.67V182.9L223.52 179.79V174Z" fill="#6A6447"/>
<path fill-rule="evenodd" clip-rule="evenodd" d="M247.72 172.08V181.59L238.18 180.88V172.84L247.72 172.08Z" fill="#B49916"/>
<path fill-rule="evenodd" clip-rule="evenodd" d="M175 148.12L212.74 136.09L234.52 186.01L198.27 200L175 148.12Z" fill="#EBEBEA"/>
<path d="M182.93 155.07L210.63 145.43" stroke="#848585" stroke-miterlimit="10"/>
<path d="M184.86 160.33L212.74 150.25" stroke="#848585" stroke-miterlimit="10"/>
<path d="M214.49 164.19L212.91 173.65H197.48" stroke="#848585" stroke-miterlimit="10"/>
<path d="M212.87 173.52L213.48 180.23" stroke="#848585" stroke-miterlimit="10"/>
<path d="M195.2 170.85L199.94 170.5L199.41 177.16H194.5L195.2 170.85Z" fill="#848585"/>
<path d="M209.93 162.43L214.84 159.98L217.64 166.12L213.35 167.69L209.93 162.43Z" fill="#848585"/>
<path d="M210.81 178.56L216.42 180.14L215.37 184.17L210.81 184V178.56Z" fill="#848585"/>
<path opacity="0.15" fill-rule="evenodd" clip-rule="evenodd" d="M182.93 145.59L193.36 161.03L203.09 150.7L182.93 145.59Z" fill="black"/>
<path fill-rule="evenodd" clip-rule="evenodd" d="M200.32 140.05L193.36 137.51L182.93 145.59L192.23 143.68L200.32 140.05Z" fill="#DEBCA4"/>
<path fill-rule="evenodd" clip-rule="evenodd" d="M182.93 145.59L194.33 156.47L203.09 150.7L200.32 140.05L182.93 145.59Z" fill="#C2977B"/>
<path fill-rule="evenodd" clip-rule="evenodd" d="M250.72 68.49L249.28 64.65H261.59L250.72 68.49Z" fill="#6F7173"/>
<path fill-rule="evenodd" clip-rule="evenodd" d="M246.28 70.06L245.07 66.57L235 74.04L246.28 70.06Z" fill="#6F7173"/>
<path d="M259.44 76.31C260.848 76.31 261.99 75.1683 261.99 73.76C261.99 72.3517 260.848 71.21 259.44 71.21C258.032 71.21 256.89 72.3517 256.89 73.76C256.89 75.1683 258.032 76.31 259.44 76.31Z" fill="#2B2B2B"/>
<path d="M241.13 81.41C242.538 81.41 243.68 80.2683 243.68 78.86C243.68 77.4517 242.538 76.31 241.13 76.31C239.722 76.31 238.58 77.4517 238.58 78.86C238.58 80.2683 239.722 81.41 241.13 81.41Z" fill="#2B2B2B"/>
<path fill-rule="evenodd" clip-rule="evenodd" d="M241.18 97.05L253.81 90.57L264.83 91.85L255.44 103.21L241.18 97.05Z" fill="#C4937D"/>
<path fill-rule="evenodd" clip-rule="evenodd" d="M246.36 96.73L260.94 93.33L254.63 99.65L246.36 96.73Z" fill="white"/>
<path opacity="0.15" fill-rule="evenodd" clip-rule="evenodd" d="M225.65 165.68L238.18 172.84L247.72 181.59L268.37 197.02L265.34 182.9V170.67L241.27 162.04L230.84 161.03L226.68 153.31L213 152.53L222.2 157.79L225.65 165.68Z" fill="black"/>
<path fill-rule="evenodd" clip-rule="evenodd" d="M284.8 152.79L242.72 151.47L240.36 158.4L242.19 165.68L265.34 170.67L284.8 152.79Z" fill="#E5C828"/>
<path fill-rule="evenodd" clip-rule="evenodd" d="M224.57 149.9L211.95 149.37L213 152.53L226.68 156.47L224.57 149.9Z" fill="#C2977B"/>
<path fill-rule="evenodd" clip-rule="evenodd" d="M242.72 151.47L235.09 145.43L228.78 150.95L242.72 151.47Z" fill="#C2977B"/>
<path fill-rule="evenodd" clip-rule="evenodd" d="M242.72 151.47L224.57 149.9L227.2 164.36L242.19 165.68L242.72 151.47Z" fill="#DEBCA4"/>
<path fill-rule="evenodd" clip-rule="evenodd" d="M249.89 263.6L213.77 206.29L223.26 260.08L249.89 263.6Z" fill="#B49916"/>
<path fill-rule="evenodd" clip-rule="evenodd" d="M215.61 108.23L224.27 117.31L211.2 131.5L215.61 108.23Z" fill="#4F5253"/>
<path fill-rule="evenodd" clip-rule="evenodd" d="M218.98 92.43L211.2 131.5L179.71 96.26L218.98 92.43Z" fill="#4F5253"/>
<path opacity="0.1" fill-rule="evenodd" clip-rule="evenodd" d="M22.6019 290.793L7.02827 299.599L24.8001 302.356L23.9986 304.254L50.5995 311.314L107.361 300.288L109.559 292.1L92.0475 289.494L45.7381 291.707L22.6019 290.793Z" fill="black"/>
<path fill-rule="evenodd" clip-rule="evenodd" d="M87.0526 133.07L117.633 153.21L97.8126 172.49L89.3326 173.41L87.0526 133.07Z" fill="#50A9AA"/>
<path fill-rule="evenodd" clip-rule="evenodd" d="M31.8525 133.07L14.0125 148.53L64.9825 161.41L76.0225 129.35L62.3525 124.14L31.8525 133.07Z" fill="#795D88"/>
<path fill-rule="evenodd" clip-rule="evenodd" d="M26.7426 137.28L48.1725 155.33L55.7925 140.6L69.7125 142.77L62.3525 124.14L55.7925 140.6L26.7426 137.28Z" fill="#D1A1B8"/>
<path fill-rule="evenodd" clip-rule="evenodd" d="M14.0126 148.53L20.1726 178.69L28.7326 210.1L67.0326 208.43L104.653 197.16L87.0526 133.07L79.8326 130.6L64.9826 161.41L14.0126 148.53Z" fill="#369496"/>
<path fill-rule="evenodd" clip-rule="evenodd" d="M18.5325 144.62L64.9825 161.41L73.3625 128.34L79.8325 130.6L67.7825 169.72L14.0125 148.53L18.5325 144.62Z" fill="#165E60"/>
<path fill-rule="evenodd" clip-rule="evenodd" d="M28.7326 210.1L71.8026 239.79L104.653 197.16L28.7326 210.1Z" fill="#9DA1A2"/>
<path fill-rule="evenodd" clip-rule="evenodd" d="M104.653 197.16L98.2526 246.18L87.9926 258.16L64.9826 265.97L65.9026 250.47L71.8026 235.61L104.653 197.16Z" fill="#8F8F8F"/>
<path fill-rule="evenodd" clip-rule="evenodd" d="M98.2524 246.18L94.4125 274.24L82.7925 279.43L71.8025 282.29L60.2325 260.38L98.2524 246.18Z" fill="#A3A3A3"/>
<path fill-rule="evenodd" clip-rule="evenodd" d="M28.7325 210.1L31.3325 255.55L47.3325 260.19L64.9825 265.97L71.8025 235.61L28.7325 210.1Z" fill="#8F8F8F"/>
<path fill-rule="evenodd" clip-rule="evenodd" d="M64.9825 265.97L59.4625 284.66L43.4225 282.56L31.3525 279.15L31.3325 255.55L64.9825 265.97Z" fill="#A3A3A3"/>
<path fill-rule="evenodd" clip-rule="evenodd" d="M94.4125 274.24L110.432 287.54L87.2225 288.59L71.8026 287.54V282.29L94.4125 274.24Z" fill="#545454"/>
<path d="M71.8026 287.54H110.432V292.48H71.8026V287.54Z" fill="#2B2B2B"/>
<path fill-rule="evenodd" clip-rule="evenodd" d="M59.4626 284.66L60.3826 292.15L39.3726 296.71L25.0526 289.79L31.3526 279.15L59.4626 284.66Z" fill="#545454"/>
<path fill-rule="evenodd" clip-rule="evenodd" d="M60.3826 292.15V297.49L38.3226 301.44L25.0526 296.27V289.79L39.3726 295.65L60.3826 292.15Z" fill="#2B2B2B"/>
<path fill-rule="evenodd" clip-rule="evenodd" d="M14.0125 148.53L-4.54749 195.04L10.9125 187.19L21.9525 181.75L14.0125 148.53Z" fill="#165E60"/>
<path fill-rule="evenodd" clip-rule="evenodd" d="M21.9526 181.75L39.3726 208.28L29.3626 220.5L-4.54742 195.04L21.9526 181.75Z" fill="#1C7678"/>
<path fill-rule="evenodd" clip-rule="evenodd" d="M39.3724 208.28L42.7825 214.22L36.6125 226.98L29.3625 220.5L39.3724 208.28Z" fill="#A17E6E"/>
<path opacity="0.17" fill-rule="evenodd" clip-rule="evenodd" d="M36.6125 226.98L30.1325 233.02L29.3625 220.5L36.6125 226.98Z" fill="black"/>
<path fill-rule="evenodd" clip-rule="evenodd" d="M97.8125 172.49L103.053 130.6L109.622 125.01L115.343 122.55L123.853 164.8L97.8125 172.49Z" fill="#1C7678"/>
<path fill-rule="evenodd" clip-rule="evenodd" d="M115.312 122.59L105.153 101.73L98.6325 112.05L95.1125 123.98L103.023 130.63L115.312 122.59Z" fill="#7F5D4E"/>
<path fill-rule="evenodd" clip-rule="evenodd" d="M105.153 101.73L90.6325 94.85L86.1325 111.88L95.1125 123.98L105.153 101.73Z" fill="#A98C80"/>
<path fill-rule="evenodd" clip-rule="evenodd" d="M96.1285 60.0634L100.028 123.968L65.0855 130.536L50.2904 146.316L26.6953 123.724L26.419 112.339L19.7126 112.762L18.4216 95.8239L31.4681 94.1578L32.1555 101.204L40.1956 102.667L46.2522 75.7736L96.1285 60.0634Z" fill="#A17E6E"/>
<path fill-rule="evenodd" clip-rule="evenodd" d="M46.2521 75.7736L52.4026 132.151L65.0855 130.536L44.1086 147.128L24.5935 132.599L24.4139 129.822L19.7126 112.762L18.4216 95.8239L31.4681 94.1578L32.1555 101.204L40.1956 102.667L46.2521 75.7736Z" fill="#7F5D4E"/>
<path fill-rule="evenodd" clip-rule="evenodd" d="M61.8398 91.3632L91.4181 86.1527L75.892 106.459L61.8398 91.3632Z" fill="#7F5D4E"/>
<path fill-rule="evenodd" clip-rule="evenodd" d="M80.8761 88.0052L82.901 105.263L75.892 106.459L74.229 89.1818L80.8761 88.0052Z" fill="#A98C80"/>
<path fill-rule="evenodd" clip-rule="evenodd" d="M65.0855 130.536L52.4026 132.151L39.8213 129.531L45.0095 144.828L50.2904 146.316L65.0855 130.536Z" fill="#593E35"/>
<path fill-rule="evenodd" clip-rule="evenodd" d="M96.1285 60.0634L33.1639 50.2944L50.8336 66.7103L68.0697 75.4598L96.1285 60.0634Z" fill="#6F7173"/>
<path fill-rule="evenodd" clip-rule="evenodd" d="M61.8399 91.3632L70.6551 83.5824L74.229 89.1817L61.8399 91.3632Z" fill="#4F5253"/>
<path fill-rule="evenodd" clip-rule="evenodd" d="M80.8761 88.0052L82.0922 80.9529L91.4181 86.1527L80.8761 88.0052Z" fill="#4F5253"/>
<path fill-rule="evenodd" clip-rule="evenodd" d="M75.892 106.459L65.7125 111.5L91.2125 112.5L82.901 105.263L75.892 106.459Z" fill="#4F5253"/>
<path fill-rule="evenodd" clip-rule="evenodd" d="M27.5171 106.464L26.1871 98.8659L21.3986 100.534L27.5171 106.464Z" fill="#593E35"/>
<path fill-rule="evenodd" clip-rule="evenodd" d="M68.0697 75.4598L6.7953 77.168L33.1639 50.2944L68.0697 75.4598Z" fill="#4F5253"/>
<path fill-rule="evenodd" clip-rule="evenodd" d="M85.1056 94.3983C84.8892 94.9508 84.8415 95.555 84.9685 96.1346C85.0955 96.7142 85.3915 97.2431 85.819 97.6545C86.2466 98.0658 86.7866 98.3412 87.3707 98.4457C87.9548 98.5501 88.5567 98.4791 89.1004 98.2415C89.6441 98.0038 90.1051 97.6103 90.4252 97.1107C90.7452 96.6111 90.9098 96.0277 90.8984 95.4345C90.8869 94.8413 90.6998 94.2648 90.3606 93.7779C90.0215 93.291 89.5457 92.9156 88.9932 92.6992C88.2524 92.409 87.4266 92.425 86.6975 92.7436C85.9684 93.0623 85.3958 93.6575 85.1056 94.3983Z" fill="#2B2B2B"/>
<path fill-rule="evenodd" clip-rule="evenodd" d="M65.9184 96.3869C65.702 96.9393 65.6543 97.5436 65.7813 98.1232C65.9083 98.7028 66.2043 99.2317 66.6319 99.6431C67.0595 100.054 67.5994 100.33 68.1835 100.434C68.7676 100.539 69.3695 100.468 69.9132 100.23C70.4569 99.9924 70.9179 99.5989 71.238 99.0993C71.558 98.5996 71.7227 98.0163 71.7112 97.4231C71.6997 96.8299 71.5126 96.2533 71.1735 95.7665C70.8344 95.2796 70.3585 94.9042 69.806 94.6878C69.0651 94.3976 68.2394 94.4135 67.5103 94.7322C66.7812 95.0508 66.2086 95.646 65.9184 96.3869Z" fill="#2B2B2B"/>
<path fill-rule="evenodd" clip-rule="evenodd" d="M46.2521 75.7736L41.7087 104.946L32.1555 101.204L29.6077 96.2751L18.4216 95.8239L21.049 111.105L24.0128 113.19L19.6275 119.559L7.9309 110.294L6.79529 77.1681L31.2204 73.2683L46.2521 75.7736Z" fill="#6F7173"/>
<path fill-rule="evenodd" clip-rule="evenodd" d="M21.049 111.105L7.93093 110.294L24.4167 130.199L21.9457 117.041L23.0946 114.108L21.049 111.105Z" fill="#4F5253"/>
<path fill-rule="evenodd" clip-rule="evenodd" d="M82.901 105.263L80.698 110.887L75.892 106.459L82.901 105.263Z" fill="#474747"/>
<path fill-rule="evenodd" clip-rule="evenodd" d="M20.9356 111.093L27.6483 112.079L21.9457 117.041L20.9356 111.093Z" fill="#593E35"/>
<path fill-rule="evenodd" clip-rule="evenodd" d="M89.2203 114.256L65.8005 113.738L72.415 124.273L85.4233 124.635L89.2203 114.256Z" fill="#C1907D"/>
<path fill-rule="evenodd" clip-rule="evenodd" d="M85.5581 116.716L71.0381 116.472L72.271 120.455L84.9863 120.604L85.5581 116.716Z" fill="white"/>
<path d="M422.805 256.954L512.396 287.615L640.555 256.217L513.895 235.74L422.805 256.954Z" fill="black" fill-opacity="0.1"/>
<path d="M534.074 238.439L530.489 215.16L500.171 216.191L495.219 233.001L504.234 251.145L519.545 249.29L534.074 238.439Z" fill="#1BB388"/>
<path d="M504.244 251.156L509.514 271.115L519.766 273.676L525.905 266.849L534.084 238.449L504.244 251.156Z" fill="#047A5B"/>
<path d="M525.897 266.839L541.123 279.564L523.656 283.248L509.713 280.632L509.506 271.105L525.897 266.839Z" fill="#8EC361"/>
<path d="M541.123 279.574L509.713 280.643L509.853 284.748L541.263 283.679L541.123 279.574Z" fill="#6C8E50"/>
<path d="M535.878 218.77L515.769 206.507L497.017 230.351L506.677 244.972L526.36 249.774L534.81 236.872L535.878 218.77Z" fill="#1BB388"/>
<path d="M526.374 249.774L545.031 258.609L553.598 252.421L552.335 243.328L535.893 218.769L526.374 249.774Z" fill="#047A5B"/>
<path d="M552.322 243.327L571.864 239.887L563.423 255.616L552.436 264.591L545.019 258.608L552.322 243.327Z" fill="#8EC361"/>
<path d="M571.873 239.894L552.445 264.598L555.673 267.136L575.101 242.433L571.873 239.894Z" fill="#6C8E50"/>
<path d="M530.965 214.616L500.809 243.27L469.684 216.816L530.965 214.616Z" fill="#00916D"/>
<path d="M513.424 140.123L494.626 140.853L500.518 155.828L508.063 152.764L513.5 143.5L513.424 140.123Z" fill="#92644D"/>
<path d="M478 65.5L484.85 73.4769L492.981 78.676L493.122 78.4534L519.269 79.622L533.413 73.1022L526.506 63.9603L501.854 55.1363L478 65.5Z" fill="#E6BBA1"/>
<path d="M483.902 143.09L499.724 149.183L508.929 143.772L513.423 140.125L528.625 138.498L534.778 117.241L535.998 82.9854L533.415 73.0682L517.279 73.6294L487.781 77.8439L480.922 90.2218L462.699 94.0339L470.154 109.247L483.902 143.09Z" fill="#E6BBA1"/>
<path d="M470.158 109.224L490.02 93.03L480.927 90.199L462.703 94.0111L470.158 109.224Z" fill="#AA795C"/>
<path d="M498.348 140.688L495.423 87.951L492.993 78.1276L483.052 87.3089L479.017 101.335L468.215 106.795L473.529 119.083L476.037 120.987L476.684 126.368L483.782 142.765L490.088 150.659L500.538 155.807L497.372 144.065L498.348 140.688Z" fill="#CB9676"/>
<path d="M462.708 94.0282L482.198 90.5842L493 78L478 65.5L462.708 94.0282Z" fill="#BC906C"/>
<path d="M534.802 117.194L497.462 119.142L489.82 118.359L486.266 108.819L478.8 104.214L486.743 135.884L494.793 140.856L505.387 140.646L528.582 138.513L534.802 117.194Z" fill="#8A8078"/>
<path d="M473.54 119.086L480.212 116.224L476.658 126.381L473.54 119.086Z" fill="#92644D"/>
<path d="M472.075 108.638L476.358 106.644L478.974 113.723L472.075 108.638Z" fill="#92644D"/>
<path d="M521.773 114.548L515.79 114.719L514.989 95.7099L520.978 95.5365L521.773 114.548Z" fill="#EEC9B3"/>
<path d="M521.786 114.54L518.52 117.342L515.803 114.711L521.786 114.54Z" fill="#92644D"/>
<path d="M512.213 128.834L506.204 120.759L529.668 120.411L523.806 128.142L512.213 128.834Z" fill="white"/>
<path d="M507.689 121.482L528.171 121.18L523.408 127.439L512.557 128.085L507.661 121.508L507.689 121.482ZM504.726 120.062L506.49 122.388L511.38 128.967L511.865 129.613L512.667 129.566L523.516 128.914L524.183 128.883L524.607 128.331L529.331 122.091L531.186 119.653L528.129 119.715L507.676 119.989L504.76 120.033L504.726 120.062Z" fill="#CB9676"/>
<path d="M499.308 104.526L501.539 98.1115L512.045 97.4971L514.067 92.6847L501.425 92.7739L498.307 94.7393L499.308 104.526Z" fill="#CB9676"/>
<path d="M532.512 92.2704L525.808 97.3969L524.47 104.104L521.343 92.4554L532.512 92.2704Z" fill="#CB9676"/>
<path d="M522.895 90.1886L521.101 92.4956L532.608 92.423L535.096 84.0016L530.028 85.9192L527.151 89.8344L522.895 90.1886Z" fill="#CB9676"/>
<path d="M513.213 90.2174L514.148 92.7798L501.013 92.8817L509.42 88.4073L513.213 90.2174Z" fill="#CB9676"/>
<path d="M499.174 107.191L515.536 109.483L515.42 106.703L499.174 107.191Z" fill="#CB9676"/>
<path d="M521.555 109.472L534.905 105.591L521.458 107.201L521.555 109.472Z" fill="#CB9676"/>
<path d="M533.442 98.0549C533.443 98.0566 533.444 98.0588 533.445 98.0605C533.95 99.1443 533.474 100.452 532.389 100.957C531.305 101.462 529.997 100.985 529.493 99.9013C528.987 98.8169 529.464 97.5095 530.548 97.0047C530.55 97.0039 530.552 97.0028 530.554 97.0021C531.635 96.5019 532.937 96.9763 533.442 98.0549Z" fill="black"/>
<path d="M511.189 98.5244C511.19 98.526 511.191 98.5283 511.192 98.53C511.696 99.6138 511.22 100.922 510.136 101.427C509.052 101.931 507.744 101.455 507.239 100.371C506.734 99.2864 507.211 97.9789 508.295 97.4742C508.297 97.4734 508.299 97.4723 508.301 97.4715C509.382 96.9714 510.683 97.4458 511.189 98.5244Z" fill="black"/>
<path d="M499.41 91.9558L501.093 92.8343L509.425 88.4019L513.218 90.212L513.914 89.2063L510.9 84.1383L499.41 91.9558Z" fill="#474747"/>
<path d="M522.903 90.1989L527.159 89.8447L530.037 85.9294L535.105 84.0119L529.331 83.6829L522.903 90.1989Z" fill="#474747"/>
<path d="M490.649 191.332L464.948 186.226L469.412 216.334L496.566 220.413L507.152 200.1L490.649 191.332Z" fill="#527635"/>
<path d="M504.436 172.988L503.365 199.67L483.149 196.941L464.956 186.207L475.84 150.235L499.204 156.544L504.436 172.988Z" fill="#8EC361"/>
<path d="M509.5 186.5L500.5 155.5L490 150.5L484 143L466.5 152.198L471.253 190.701L473 210.251L512.412 200.274L509.5 186.5Z" fill="#629F48"/>
<path d="M513.5 143.5L507.291 152.313L500.5 155.5L507.291 205L524 202.5L527.769 152.313L513.5 143.5Z" fill="#B8DC84"/>
<path d="M534.5 176.5L525.5 184.5L526 176L534.5 176.5Z" fill="#92644D"/>
<path d="M527.769 152.313L534.5 176.5L525.5 182L527.769 152.313Z" fill="#527635"/>
<path fill-rule="evenodd" clip-rule="evenodd" d="M512.089 264.55L507.962 297.648L493.713 291.075L492.251 276.9L459.5 264.55L455 276.9L440.5 269.5L434.079 234.533L512.089 264.55Z" fill="#8E8E8E"/>
<path fill-rule="evenodd" clip-rule="evenodd" d="M635.477 270.174L606.628 260.653L631.675 249.495L635.477 270.174Z" fill="#4F5253"/>
<path fill-rule="evenodd" clip-rule="evenodd" d="M508.023 268.991L507.962 297.648L521.083 293.279L527.723 275.002L629.877 256.426L635.477 270.174L657.365 264.65L650.1 238.256L547.025 252.383L508.023 268.991Z" fill="#737373"/>
<path fill-rule="evenodd" clip-rule="evenodd" d="M425.489 214.509L580.886 186.794L663.897 220.749L504.94 243.965L425.489 214.509Z" fill="#DCDCDB"/>
<path fill-rule="evenodd" clip-rule="evenodd" d="M425.489 214.509L424.977 235.472L508.023 268.991L507.839 250.924L504.735 241.975L425.489 214.509Z" fill="#A2A2A2"/>
<path fill-rule="evenodd" clip-rule="evenodd" d="M504.735 241.975L663.897 220.749L660.937 235.912L508.023 268.991L504.735 241.975Z" fill="#9CA0A1"/>
<path d="M549 194.006L547.5 199L525.5 184.5L534.5 176.5L549 194.006Z" fill="#E6BBA1"/>
<path opacity="0.1" fill-rule="evenodd" clip-rule="evenodd" d="M526.827 210.926L540.369 227.705L602.449 220.128L609.618 211.075L613.294 202.844L526.827 210.926Z" fill="black"/>
<path fill-rule="evenodd" clip-rule="evenodd" d="M526.126 204.132L580.265 192.075L608.095 202.837L551.108 217.299L526.126 204.132Z" fill="#88898A"/>
<path fill-rule="evenodd" clip-rule="evenodd" d="M550.903 215.309L544.374 175.781L615.005 159.772L608.095 202.837L580.029 209.974L550.903 215.309Z" fill="#4F5253"/>
<path fill-rule="evenodd" clip-rule="evenodd" d="M608.095 202.837L550.903 215.309L549.858 219.217L550.813 222.527L609.618 211.075L608.095 202.837Z" fill="#2B2B2B"/>
<path fill-rule="evenodd" clip-rule="evenodd" d="M550.903 215.309L526.126 204.132L526.827 210.926L550.813 222.527L550.903 215.309Z" fill="#4F5253"/>
<path fill-rule="evenodd" clip-rule="evenodd" d="M550.903 215.309L545.472 176.673L543.965 174.345L540.156 173.672L547.656 213.845L550.903 215.309Z" fill="#585B5B"/>
<path fill-rule="evenodd" clip-rule="evenodd" d="M540.156 173.672L609.442 155.741L615.005 159.772L545.472 176.673L540.156 173.672Z" fill="#88898A"/>
<path fill-rule="evenodd" clip-rule="evenodd" d="M460.961 218.552L481.173 233.809L522.735 226.427L498.689 207.715L460.961 218.552Z" fill="#EBEBEA"/>
<path fill-rule="evenodd" clip-rule="evenodd" d="M464.857 228.153L483.482 216.23L515.696 220.95L497.113 239.333L479.391 236.808L464.857 228.153Z" fill="white"/>
<path fill-rule="evenodd" clip-rule="evenodd" d="M497.113 239.333L496.122 248.634L463.112 248.278L464.857 228.153L497.113 239.333Z" fill="#EBEBEA"/>
<path d="M482.138 221.043L505.095 224.315" stroke="#A2A2A2" stroke-miterlimit="10"/>
<path d="M478.467 224.437L501.424 227.71" stroke="#A2A2A2" stroke-miterlimit="10"/>
<path d="M474.796 227.832L497.753 231.104" stroke="#A2A2A2" stroke-miterlimit="10"/>
<path opacity="0.1" fill-rule="evenodd" clip-rule="evenodd" d="M611.402 218.622L628.445 225.48L652.352 216.028L634.866 208.874L611.402 218.622Z" fill="black"/>
<path fill-rule="evenodd" clip-rule="evenodd" d="M611.189 214.12L629.45 198.665L647.371 201.844L627.746 218.696L611.189 214.12Z" fill="#BEDA8D"/>
<path fill-rule="evenodd" clip-rule="evenodd" d="M621.918 208.49L630.204 201.101L641.951 202.905L632.199 210.697L621.918 208.49Z" fill="#4F5253"/>
<path fill-rule="evenodd" clip-rule="evenodd" d="M618.595 211.265L620.554 209.887L631.084 212.068L629.276 213.26L618.595 211.265Z" fill="#709C53"/>
<path fill-rule="evenodd" clip-rule="evenodd" d="M615.631 213.33L616.868 212.358L628.056 214.391L626.186 215.76L615.631 213.33Z" fill="#709C53"/>
<path fill-rule="evenodd" clip-rule="evenodd" d="M611.189 214.12L611.402 218.622L628.556 222.553L629.086 219.995L627.643 217.701L611.189 214.12Z" fill="#709C53"/>
<path fill-rule="evenodd" clip-rule="evenodd" d="M647.371 201.844L646.558 213.66L628.556 222.553L627.643 217.701L647.371 201.844Z" fill="#5A753D"/>
<path d="M469 199.5L513.5 205L519.544 201.873L516.41 197.225L480.743 192.069L469 199.5Z" fill="#E6BBA1"/>
<path d="M465.5 188L481 192L469 199.5L465.5 188Z" fill="#92644D"/>
<path d="M462.5 187.5L481 192L466.736 152.306L462.5 187.5Z" fill="#527635"/>
<path d="M516.508 196.942L528.554 195.508L534.601 201.691L516.508 196.942Z" fill="#CB9676"/>
<path d="M513 205L524.089 209.567L523.738 204.261L532.5 198L527.038 196.171L514.5 197L513 205Z" fill="#EEC9B3"/>
<path d="M522.968 209.563L535 209.563L538.5 202.5L531.724 198.344L528.5 200L522.968 204.5L522.968 209.563Z" fill="#CB9676"/>
<path fill-rule="evenodd" clip-rule="evenodd" d="M537.267 232.945L516.936 237.065L512.287 235.496L516.846 235.152L537.062 231.891L537.267 232.945Z" fill="#8B6651"/>
<path fill-rule="evenodd" clip-rule="evenodd" d="M511.702 220.13L494.363 225.214L493 230.792L508.881 230.792L512.287 235.496L516.632 235.726L515.453 226.487L511.702 220.13Z" fill="#785D88"/>
<path fill-rule="evenodd" clip-rule="evenodd" d="M536.438 216L511.702 220.13L516.632 235.726L539.814 231.396L536.438 216Z" fill="#9075A0"/>
<path fill-rule="evenodd" clip-rule="evenodd" d="M534.305 220.579L516.317 223.895L517.246 226.887L534.969 223.696L534.305 220.579Z" fill="#594165"/>
<path fill-rule="evenodd" clip-rule="evenodd" d="M530.435 226.662L523.748 227.856L527.423 229.229L530.435 226.662Z" fill="#785D88"/>
<path fill-rule="evenodd" clip-rule="evenodd" d="M485.028 215.036L466.23 213.427L465.401 212.229L466.077 210.587L484.009 212.75L485.028 215.036Z" fill="#785D88"/>
<path fill-rule="evenodd" clip-rule="evenodd" d="M466.23 213.427L463.402 212.575L463.662 210.896L466.077 210.587L466.23 213.427Z" fill="#9075A0"/>
<path fill-rule="evenodd" clip-rule="evenodd" d="M484.009 212.75L484.152 214.022L485.028 215.036L488.133 214.204L484.009 212.75Z" fill="#9075A0"/>
<path d="M588.51 196.404L585.678 193.139L584.469 197.326L581.255 198.059L584.385 187.198L591.724 195.67L588.51 196.404Z" fill="#36495E"/>
<path d="M584.385 187.198L585.678 193.139L584.469 197.326L581.255 198.059L584.385 187.198Z" fill="url(#paint0_linear)"/>
<path d="M573.999 199.715L575.209 195.528L578.04 198.793L581.255 198.059L573.915 189.586L570.785 200.448L573.999 199.715Z" fill="#36495E"/>
<path d="M573.915 189.586L575.209 195.528L578.04 198.793L581.255 198.059L573.915 189.586Z" fill="url(#paint1_linear)"/>
<path d="M572.511 183.135L579.85 191.608L582.98 180.746L595.214 194.874L591.724 195.67L584.385 187.198L581.255 198.059L573.915 189.587L570.785 200.448L567.295 201.244L572.511 183.135Z" fill="url(#paint2_linear)"/>
<path d="M710.798 122.413L712.825 118.654L709.443 118.071L701.022 118.968L710.798 122.413Z" fill="#F4CAB2"/>
<path d="M720.456 135.459L719.677 129.698L718.284 124.616L702.17 128.663L711.307 137.266L717.914 142.97L720.456 135.459Z" fill="#C18F7C"/>
<path opacity="0.1" d="M723.957 265.621L771.377 276L810.872 265.565L769.275 260.927L723.957 265.621Z" fill="#2C2B2B"/>
<path d="M767.085 267.767L781.775 263.619L790.158 267.767V271.068H767.085V267.767Z" fill="#2B2B2B"/>
<path d="M741.86 260.927L765.083 256.773L773.467 260.927V264.228H741.86V260.927Z" fill="#2B2B2B"/>
<path d="M759.925 245.547L758.62 249.162L741.86 260.927H774.389L772.927 248.93L759.925 245.547Z" fill="#828282"/>
<path d="M776.849 248.622L770.925 253.623L767.085 267.767H790.158L787.378 258.7L776.849 248.622Z" fill="#828282"/>
<path d="M754.466 220.247L751.084 226.396L758.62 249.162L770.925 253.623L776.378 227.287L754.466 220.247Z" fill="#686A6C"/>
<path d="M742.01 190.102L739.971 194.871L751.084 226.396L765.849 230.092L767.543 208.713L750.795 190.503L742.01 190.102Z" fill="#858686"/>
<path d="M769.231 220.247L765.849 230.092L770.925 253.623L787.378 258.7L789.531 223.786L769.231 220.247Z" fill="#4B4E4F"/>
<path d="M760.622 197.023L759.543 204.867L765.849 230.092L789.531 223.786L791.263 204.327L788.307 183.331L760.622 197.023Z" fill="#686A6C"/>
<path d="M771.383 186.562L767.349 201.133L759.543 204.867L751.586 199.828L750.011 181.178L771.383 186.562Z" fill="#4B4E4F"/>
<path d="M696.654 146.892L699.164 143.234L709.788 135.886L709.437 118.077L692.086 117.588L689.689 139.832L696.654 146.886V146.892ZM702.603 132.723L702.459 135.082L696.811 137.479L696.636 130.257L702.496 124.032L702.603 132.723Z" fill="#686A6C"/>
<path d="M696.78 122.802L709.537 122.928L709.719 131.913L702.459 135.082L699.346 125.833L696.818 136.67L693.919 128.738L696.78 122.802Z" fill="#F4CAB2"/>
<path d="M686.652 113.804L701.411 113.848L698.681 149.653L686.652 149.803L683.822 125.174L686.652 113.804Z" fill="#858686"/>
<path d="M672 113.76L686.652 113.804V121.02V149.803L674.272 149.954L672 113.76Z" fill="#A3A3A3"/>
<path d="M718.372 145.775L714.683 145.16L711.307 137.266L719.677 129.698L723.756 135.547L718.372 145.775Z" fill="#EAECEB"/>
<path d="M750.161 121.698L747.124 120.662L727.013 143.88L728.707 155.564L739.048 158.701C739.048 158.701 757.026 136.312 755.928 136.362C754.83 136.413 750.161 121.698 750.161 121.698Z" fill="#474747"/>
<path d="M745.204 155.846L739.048 158.689L739.971 194.871L751.586 199.828L758.043 189.141L762.605 161.613L745.204 155.846Z" fill="#474747"/>
<path d="M767.581 159.454L756.047 164.456L758.043 189.141L767.349 201.133L779.742 192.844L791.495 186.606L801.88 161.914L787.19 152.075L767.581 159.454Z" fill="#474747"/>
<path d="M788.508 185.194L785.113 186.186L779.742 192.844L791.263 204.327L795.705 195.134L788.508 185.194Z" fill="#FBE3D4"/>
<path d="M794.08 198.497L795.705 195.134L790.202 187.535L785.113 186.186L794.08 198.497Z" fill="#F4CAB2"/>
<path d="M793.729 172.412L787.73 179.108L785.113 186.186L795.705 195.134L798.881 188.1L793.729 172.412Z" fill="#EAECEB"/>
<path d="M799.339 158.959L791.344 158.494L787.73 179.108L798.88 188.1L810.414 162.881L799.339 158.959Z" fill="#474747"/>
<path d="M760.622 148.348L756.047 164.456L791.344 158.494L799.954 135.346L796.339 124.12L784.868 117.073L760.622 148.348Z" fill="#4F5253"/>
<path d="M751.661 131.926C752.696 131.964 753.732 117.242 753.732 117.242L747.124 120.662L739.048 158.689L756.047 164.456L751.661 131.926Z" fill="#4F5253"/>
<path d="M754.504 123.317C754.096 123.317 770.731 120.7 770.731 120.7L776.962 140.617L760.352 154.61L752.195 146.923L752.822 128.468L754.504 123.317Z" fill="#DDDDDC"/>
<path d="M763.584 132.233L760.427 137.197L753.581 149.226L756.047 164.456L767.656 150.23L765.541 137.58L763.584 132.233Z" fill="#A688BA"/>
<path d="M773.58 128.004L772.387 136.08L756.047 164.456L784.806 140.692L785.527 117.475L773.58 128.004Z" fill="#2B2B2B"/>
<path d="M757.503 124.547L754.736 134.16L756.047 164.456L744.972 140.002L753.732 117.242L757.503 124.547Z" fill="#2B2B2B"/>
<path d="M757.622 128.312L760.427 137.197L765.541 137.58L772.08 127.427L761.274 121.428L757.622 128.312Z" fill="#4B4E4F"/>
<path d="M758.821 127.546L759.932 129.73L766.916 135.453L770.179 130.382L767.694 126.078L761.249 123.292L759.555 124.672L758.821 127.546Z" fill="#4B4E4F"/>
<path d="M760.659 118.855L763.847 126.391L772.387 136.08L785.527 117.475L783.764 116.395L760.659 118.855Z" fill="#EAECEB"/>
<path d="M753.619 115.429L754.736 134.16L763.847 126.391L760.967 116.314L753.619 115.429Z" fill="#EAECEB"/>
<path d="M743.937 108.388L763.847 126.391L778.97 120.004L784.586 113.678L784.128 102.559L743.937 108.388Z" fill="#C18F7C"/>
<path d="M788.558 85.0392L789.336 92.1299L784.988 117.475L777.997 120.411L779.591 107.516L774.232 108.301L747.087 49.3658C747.087 49.3658 765.912 32.6555 766.972 35.4353C768.033 38.2151 787.353 60.14 787.353 60.14L788.558 85.0392Z" fill="#F4CAB2"/>
<path d="M782.34 82.4163L789.336 92.13L791.087 82.4163H782.34Z" fill="#C18F7C"/>
<path d="M782.747 43.1599L795.523 49.8114L793.101 70.18L786.387 74.0077H779.372L779.196 59.6568L782.747 43.1599Z" fill="#33231B"/>
<path d="M764.023 39.6019L768.949 45.5067L779.196 59.6568L795.523 49.8113L781.913 33.3834L764.023 39.6019Z" fill="#33231B"/>
<path d="M720.418 44.4337L713.791 53.3693L721.127 69.8412L735.17 54.116L720.418 44.4337Z" fill="#33231B"/>
<path d="M715.749 42.0429L741.389 26.2738L775.575 25L781.913 33.3834L768.949 45.5067L736.595 46.7617L715.749 42.0429Z" fill="#51362A"/>
<path d="M724.39 52.3402L721.127 50.9722L715.749 42.0429L768.949 45.5067L736.589 54.3482L724.39 52.3402Z" fill="#33231B"/>
<path d="M721.127 50.9722V69.8412L725.94 98.9007L735.152 111.545L774.232 108.301L768.949 45.5067L737.931 50.9722H721.127Z" fill="#FBE3D4"/>
<path d="M736.281 96.3468L748.605 95.28L757.127 92.0045L749.371 97.2253L736.281 96.3468Z" fill="#C18F7C"/>
<path d="M731.11 66.7413L724.98 69.427L732.736 74.0078L741.326 83.5897L747.061 86.2189L756.273 70.9518L764.023 66.4652L756.129 63.9427L746.5 69.427L745.317 73.3489L744.081 76.9005L741.86 73.5246L741.326 69.427L733.369 66.9672L731.11 66.7413Z" fill="#F4CAB2"/>
<path d="M744.169 82.5543L741.163 86.6017L744.213 88.6913L747.062 86.2189L744.169 82.5543Z" fill="#C18F7C"/>
<path d="M741.86 73.5246L741.163 86.6017L747.062 86.2189L745.317 73.3489L741.86 73.5246Z" fill="#FFF0E8"/>
<path d="M741.5 69.427V67.168L731.299 65.3796L725.262 67.5884L724.98 69.427L731.223 67.168L741.5 69.427Z" fill="#33231B"/>
<path d="M746.5 67L755.865 63.1708L763.395 64.7647L764.023 66.4652L756.223 64.9153L746.5 69.5V67Z" fill="#33231B"/>
<path d="M733.846 60.2718L742.016 60.3596L752.766 56.99L742.205 61.8656L733.846 60.2718Z" fill="#F4CAB2"/>
<path d="M730.583 57.492L740.523 59.1737L745.756 56.99L740.228 57.7806L730.583 57.492Z" fill="#F4CAB2"/>
<path d="M736.695 93.7803L732.867 98.5807L733.275 93.454L736.695 93.7803Z" fill="#F4CAB2"/>
<path d="M756.857 89.7957L762.542 93.3473L761.105 89.1368L756.857 89.7957Z" fill="#F4CAB2"/>
<path d="M782.34 82.4162L783.406 69.6341L793.101 70.18L791.087 82.4162H782.34Z" fill="#FBE3D4"/>
<path d="M785.546 71.9684L784.655 79.9753L791.087 72.3763L785.546 71.9684Z" fill="#C18F7C"/>
<path d="M791.344 158.494L796.339 124.12L799.953 126.122L810.414 162.881L791.344 158.494Z" fill="#474747"/>
<path d="M723.166 167.417L739.048 158.689L723.756 135.547L714.683 145.16L723.166 167.417Z" fill="#474747"/>
<path d="M676.656 80.0694L674.19 87.8253L677.541 91.264L677.453 96.1961L680.095 88.7101L676.832 86.062L676.656 80.0694Z" fill="#EAECEB"/>
<path d="M682.649 90.0278L679.473 98.5744L683.446 103.601L683.621 113.471L687.054 101.486L683.088 96.6417L682.649 90.0278Z" fill="#EAECEB"/>
<path d="M688.899 84.2674L686.696 93.8744L691.013 99.0764L689.777 104.711L690.574 113.528L691.892 104.096L693.919 97.6645L688.899 91.0569V84.2674Z" fill="#EAECEB"/>
<path d="M673.977 117.782L674.974 124.892L676.123 124.961L676.625 122.219L677.102 124.961H677.986L679.354 117.374H678.099L677.528 121.767L677.208 119.508L676.198 119.294L675.696 121.717L675.181 117.199L673.926 117.763L673.977 117.782ZM679.473 121.792L680.157 118.447L681.569 117.286L682.875 117.832L683.653 120.6L683.339 124.139L681.557 125.394L679.944 124.415L679.499 121.792H679.473ZM682.178 120.185L681.011 120.411V122.758L682.203 122.702L682.165 120.192L682.178 120.185ZM683.897 116.678L683.822 125.174L684.895 125.231L684.995 123.455L686.439 125.337L687.951 125.5L685.905 121.949L686.633 118.127L683.897 116.678ZM685.065 120.173L685.134 118.918L685.836 119.213L685.065 120.154V120.173ZM688.579 117.381V123.561L690.191 123.241V125.231L687.769 125.124L687.305 117.243L688.56 117.355L688.579 117.381ZM690.26 125.45L690.988 116.458L693.197 118.723L692.996 121.491L690.26 125.45ZM691.81 118.987L691.603 121.466L692.394 120.116L691.81 118.987ZM693.743 118.008V116.885L694.213 116.383L694.734 116.778V118.14L694.301 119.395L693.831 119.018L694.163 118.259L693.73 117.996L693.743 118.008ZM694.923 124.283L695.475 122.275L697.545 123.116L696.918 121.861L695.393 119.978L695.807 117.588L698.744 117.312L698.349 119.194L696.855 118.899L696.962 119.916L698.142 120.775L698.826 122.35L698.091 124.641L694.916 124.283H694.923ZM679.386 136.206L679.147 127.609L681.971 128.167L681.4 131.029L682.592 133.15L679.386 136.206ZM680.088 129.134L680.126 130.288L680.929 129.259L680.088 129.134ZM680.289 132.497L680.39 133.896L681.281 132.924L680.289 132.497ZM682.762 127.684L682.655 135.766L685.548 135.829V133.733H683.778V132.654L685.385 132.71V130.985H683.747V129.855L685.679 129.912V127.747L682.705 127.684H682.762ZM685.799 134.982L686.357 132.98L688.422 133.821L687.794 132.566L686.269 130.684L686.683 128.293L689.626 128.017L689.225 129.899L687.731 129.598L687.838 130.615L689.018 131.474L689.702 133.049L688.968 135.34L685.792 134.982H685.799ZM691.27 129.962L691.34 135.917L692.444 136.124L692.375 129.849L693.806 129.749V127.985L689.551 128.556L689.614 130.364L691.239 129.956L691.27 129.962ZM678.94 146.904L678.702 138.308L681.519 138.86L680.954 141.721L682.14 143.842L678.94 146.904ZM679.643 139.833V140.993L680.446 139.958L679.612 139.833H679.643ZM679.844 143.196L679.944 144.595L680.835 143.629L679.844 143.196ZM682.172 143.196L682.856 139.851L684.268 138.69L685.592 139.205L686.37 141.979L686.05 145.518L684.268 146.773L682.63 145.806L682.184 143.183L682.172 143.196ZM684.883 141.59L683.709 141.815V144.162L684.895 144.106V141.596L684.883 141.59ZM686.489 145.681L687.047 143.673L689.112 144.514L688.484 143.259L686.96 141.376L687.374 138.979L690.31 138.703L689.915 140.586L688.422 140.291L688.528 141.307L689.708 142.167L690.386 143.736L689.658 146.032L686.476 145.675L686.489 145.681ZM690.342 145.681L693.517 146.038L694.251 143.748L693.567 142.173L692.387 141.313L692.281 140.297L693.774 140.598L694.176 138.716L691.239 138.992L690.819 141.389L692.344 143.271L692.971 144.526L690.907 143.692L690.342 145.681Z" fill="#686A6C"/>
<path d="M686.652 145.687V145.104L687.047 143.66L689.112 144.501L688.484 143.246L686.96 141.364L687.374 138.973L690.31 138.697L689.915 140.579L688.422 140.284L688.528 141.301L689.708 142.161L690.386 143.729L689.658 146.02L686.64 145.687H686.652ZM686.652 135.07V133.087L688.422 133.809L687.794 132.554L686.646 131.117V128.506L686.684 128.261L689.627 127.985L689.225 129.868L687.731 129.567L687.838 130.583L689.018 131.443L689.702 133.018L688.968 135.308L686.646 135.051L686.652 135.07ZM686.652 125.362V123.241L687.951 125.5L686.652 125.362ZM688.579 117.381L687.324 117.268L687.757 125.124L690.172 125.231L690.21 123.241L688.597 123.561V117.381H688.579ZM690.26 125.45L690.988 116.458L693.197 118.723L692.996 121.491L690.26 125.45ZM691.81 118.987L691.603 121.466L692.394 120.116L691.81 118.987ZM693.743 118.008V116.885L694.214 116.383L694.734 116.778V118.14L694.301 119.395L693.831 119.018L694.163 118.259L693.73 117.996L693.743 118.008ZM694.923 124.283L695.475 122.275L697.546 123.116L696.918 121.861L695.393 119.978L695.807 117.588L698.744 117.312L698.349 119.194L696.855 118.899L696.962 119.916L698.142 120.775L698.826 122.35L698.091 124.641L694.916 124.283H694.923ZM691.271 129.931L691.34 135.886L692.444 136.093L692.375 129.818L693.806 129.717V127.954L689.551 128.525L689.614 130.332L691.239 129.924L691.271 129.931ZM690.342 145.675L693.517 146.032L694.251 143.742L693.567 142.167L692.388 141.307L692.281 140.291L693.774 140.592L694.176 138.709L691.239 138.985L690.819 141.382L692.344 143.265L692.971 144.52L690.907 143.685L690.342 145.675Z" fill="#4B4E4F"/>
<path d="M718.284 124.616L712.825 118.654L705.452 124.471L709.644 128.199L718.284 124.616Z" fill="#FBE3D4"/>
<path d="M756.273 71.3728C756.778 71.3986 757.265 71.572 757.673 71.8716C758.08 72.1711 758.391 72.5837 758.566 73.0581C758.742 73.5326 758.774 74.0481 758.659 74.5407C758.545 75.0334 758.288 75.4816 757.921 75.8298C757.554 76.1781 757.093 76.411 756.595 76.4999C756.097 76.5887 755.584 76.5295 755.12 76.3296C754.655 76.1297 754.259 75.7978 753.981 75.3752C753.703 74.9526 753.556 74.4577 753.556 73.9518C753.576 73.25 753.873 72.5846 754.382 72.1012C754.891 71.6178 755.571 71.3559 756.273 71.3728V71.3728Z" fill="#2B2B2B"/>
<path d="M733.282 73.9518C733.787 73.9776 734.273 74.151 734.681 74.4506C735.088 74.7501 735.399 75.1627 735.575 75.6371C735.75 76.1116 735.783 76.6271 735.668 77.1197C735.553 77.6124 735.297 78.0606 734.93 78.4089C734.563 78.7571 734.102 78.99 733.604 79.0789C733.106 79.1677 732.593 79.1085 732.128 78.9086C731.663 78.7087 731.268 78.3769 730.99 77.9542C730.712 77.5316 730.564 77.0367 730.565 76.5308C730.573 76.1831 730.651 75.8404 730.792 75.5226C730.934 75.2047 731.136 74.9178 731.389 74.6783C731.641 74.4388 731.938 74.2514 732.263 74.1267C732.588 74.0021 732.934 73.9426 733.282 73.9518Z" fill="#2B2B2B"/>
</g>
<defs>
<linearGradient id="paint0_linear" x1="583.872" y1="197.471" x2="581.668" y2="187.812" gradientUnits="userSpaceOnUse">
<stop stop-color="#36495E"/>
<stop offset="1" stop-color="#0A1C33"/>
</linearGradient>
<linearGradient id="paint1_linear" x1="578.636" y1="198.666" x2="576.432" y2="189.006" gradientUnits="userSpaceOnUse">
<stop stop-color="#36495E"/>
<stop offset="1" stop-color="#0A1C33"/>
</linearGradient>
<linearGradient id="paint2_linear" x1="581.254" y1="198.068" x2="577.581" y2="181.969" gradientUnits="userSpaceOnUse">
<stop offset="0.2" stop-color="#81CF6B"/>
<stop offset="1" stop-color="#86D169"/>
</linearGradient>
<clipPath id="clip0">
<rect width="858" height="365" fill="white"/>
</clipPath>
</defs>
</svg>
