<svg width="1216" height="536" viewBox="0 0 1216 536" fill="none" xmlns="http://www.w3.org/2000/svg">
<path opacity="0.1" fill-rule="evenodd" clip-rule="evenodd" d="M528.67 456.29L578.96 442L646.79 459.84L574.13 478.4L504 462.33L528.67 456.29Z" fill="black"/>
<path opacity="0.1" fill-rule="evenodd" clip-rule="evenodd" d="M932.67 504.29L982.96 490L1050.79 507.84L978.13 526.4L908 510.33L932.67 504.29Z" fill="black"/>
<path d="M999.591 514.5L1038.22 506.018L1028.6 459.365L996.706 455.287L999.591 514.5Z" fill="#828282"/>
<path d="M948.622 457.081L940.128 510.585L999.591 514.5L1000.23 455.287L948.622 457.081Z" fill="#A3A3A3"/>
<path d="M595.211 467.195L633.838 458.876L624.221 412.06L592.486 408.145L595.211 467.195Z" fill="#828282"/>
<path d="M544.243 409.776L535.748 463.443L595.211 467.195L595.852 407.981L544.243 409.776ZM1152.82 39L1179.74 90.3834L1190 472.578L1120.28 482.691L1109.86 469.805L1118.2 461.322L1154.1 439.953L1134.22 234.42L1152.82 39Z" fill="#A3A3A3"/>
<path d="M502.891 90.2202L498.404 368.343L1157.3 442.89L1152.82 39L502.891 90.2202Z" fill="#ECECEB"/>
<path d="M1118.2 461.322L450 388.081L498.404 368.343L1157.3 442.89L1118.2 461.322Z" fill="#DDDDDC"/>
<path d="M1118.2 461.322L450 388.081L450.321 408.145L1120.28 482.691L1118.2 461.322Z" fill="#8F8F8F"/>
<path fill-rule="evenodd" clip-rule="evenodd" d="M552.417 144.377L573.894 135.405L596.814 138.831L631.113 135.568L620.214 126.107L629.991 118.93L669.9 122.518L660.123 135.731L671.824 134.753L691.057 120.235L724.875 137.689L721.189 147.802L702.757 147.15L702.116 139.809L673.747 155.306L697.949 169.987L702.116 153.022L726.799 154.653L743.788 174.065L718.785 190.051L704.039 215.008L679.677 217.292L678.555 238.824L694.102 231.484L730.165 266.881L683.203 243.392L670.061 244.86L634.8 212.725L625.023 209.299L617.49 182.547L588.479 170.15L559.63 179.448L558.027 167.866L550.654 166.561L552.417 144.377Z" fill="#E5C828"/>
<path fill-rule="evenodd" clip-rule="evenodd" d="M722.632 260.193L733.21 252.037L769.433 261.988L775.363 272.59L805.976 281.073L794.917 312.392L768.311 337.024L753.405 360.187L756.771 372.91L742.666 368.343L740.262 346.322L743.468 311.903L730.485 303.42L720.227 278.952L724.234 265.413L722.632 260.193ZM861.432 193.15L859.989 198.696L878.421 205.547L884.832 200.001L902.623 200.164L906.79 223.001L920.414 238.824L932.755 234.42L930.191 253.179L916.086 265.413L920.894 284.172L903.905 318.428L888.518 324.3L872.972 290.534L875.536 282.704L863.515 253.016L851.014 251.222L836.268 258.399L818.638 241.434L821.843 215.987L832.101 199.512L861.432 193.15Z" fill="#A688BA"/>
<path fill-rule="evenodd" clip-rule="evenodd" d="M722.632 260.193L733.21 252.037L743.468 278.952L724.234 290.207L720.227 278.952L724.234 265.413L722.632 260.193Z" fill="#E5C828"/>
<path d="M920.895 284.172L903.905 318.428L888.518 324.3L872.972 290.534L875.536 282.704L920.895 284.172Z" fill="#E5C828"/>
<path fill-rule="evenodd" clip-rule="evenodd" d="M832.902 197.881L842.679 191.682L847.327 182.873L856.623 181.405L868.324 189.888L873.132 187.93L878.261 194.618L886.275 187.604L902.943 191.682L900.7 201.469L919.773 232.789L945.096 213.867L934.518 209.136L923.138 204.079L926.825 199.838L941.731 207.505L964.169 217.292L974.587 240.619L980.838 236.541L988.852 214.519H997.507L1018.66 237.193L1025.72 227.895L1020.27 212.888L1036.29 208.157L1043.83 195.76L1036.13 179.285L1043.99 175.696L1049.28 185.81L1056.65 170.476L1070.11 153.838L1063.22 146.66L1069.15 138.504H1084.7L1093.19 131.327L1101.37 132.632L1088.22 144.214L1092.55 152.696L1103.29 134.753L1124.61 127.901L1123.32 116.646L1101.69 115.504L1064.98 109.958L1045.27 113.22L1037.9 108.327L1019.14 109.795L1008.73 103.922L968.978 114.852L951.668 114.689L945.898 122.845L906.309 134.1L897.494 140.951L894.288 135.568L903.264 131.653L901.341 126.107L874.735 125.291L844.923 146.824L850.853 155.958L865.439 156.448L866.4 146.824L876.498 138.504L875.857 151.065L870.247 159.873L852.296 160.526L841.878 169.008L832.421 175.207L837.39 182.547L824.568 184.831L832.902 197.881Z" fill="#A688BA"/>
<path d="M832.902 197.881L842.679 191.682L847.327 182.873L856.623 181.405L868.324 189.888L873.132 187.93L878.261 194.618L886.275 187.604L878.261 175.696L886.275 169.008L901.341 156.448L923.138 164.604L951.668 175.696L968.978 170.476L980.838 175.696L992.538 191.682L988.852 214.519H997.507L1018.66 237.193L1025.72 227.895L1020.27 212.888L1036.29 208.157L1043.83 195.76L1036.13 179.285L1043.99 175.696L1049.28 185.81L1056.65 170.476L1070.11 153.838L1063.22 146.66L1069.15 138.504H1084.7L1093.19 131.327L1101.37 132.632L1088.22 144.214L1092.55 152.696L1103.29 134.753L1124.61 127.901L1123.32 116.646L1101.69 115.504L1064.98 109.958L1045.27 113.22L1037.9 108.327L1019.14 109.795L1008.73 103.922L968.978 114.852L951.668 114.689L945.898 122.845L906.309 134.1L897.494 140.951L894.288 135.568L903.264 131.653L901.341 126.107L874.735 125.291L844.923 146.824L850.853 155.958L865.439 156.448L866.4 146.824L876.498 138.504L875.857 151.065L870.247 159.873L852.296 160.526L841.878 169.008L832.421 175.207L837.39 182.547L824.568 184.831L832.902 197.881Z" fill="#E5C828"/>
<path fill-rule="evenodd" clip-rule="evenodd" d="M826.171 155.306L836.749 152.207L835.948 159.221L841.557 166.888L837.55 169.824L829.536 169.661L831.941 163.788L826.171 155.306Z" fill="#E5C828"/>
<path fill-rule="evenodd" clip-rule="evenodd" d="M820.401 163.625L825.209 161.341L828.415 163.788L823.606 170.802L820.401 163.625ZM926.184 295.917L936.602 285.477L934.999 308.803L928.267 310.435L926.184 295.917ZM756.931 150.086L762.06 141.44L775.683 134.1L788.345 131.327L786.262 121.866L792.993 120.887V111.263L801.809 100.823L797.641 98.05L787.063 102.291L780.972 92.0145L745.712 97.0713L735.293 106.695L721.349 107.022L712.694 123.497L733.691 124.965L739.621 141.114L756.931 150.086ZM1045.43 312.229L1043.51 301.952L1034.05 287.434L1050.24 281.888L1049.92 275.853L1068.83 266.229L1073.32 267.044L1072.68 274.058L1081.01 276.505L1079.41 264.76L1085.18 267.207L1092.23 279.441L1097.68 283.52L1103.93 296.569L1095.28 312.229L1086.78 313.534L1076.84 304.236L1058.41 304.725L1057.77 309.619L1045.43 312.229ZM1026.68 247.306L1039.18 236.051L1042.22 247.959L1036.61 255.789L1032.29 256.441L1026.68 247.306ZM1066.43 247.143L1085.98 252.2L1091.59 260.03L1088.87 261.172L1084.06 258.562L1079.41 261.661L1068.51 253.179L1061.46 248.285L1066.43 247.143ZM1009.37 236.214L1020.11 244.044L1019.14 248.611L1023.95 253.342L1024.43 261.009L1030.68 263.782L1024.43 265.902L1015.62 258.562L1011.77 249.427L1006.96 243.392L1010.97 241.76L1009.37 236.214ZM1070.43 163.299L1077.16 165.909L1070.43 170.965L1070.91 180.59L1056.65 189.561L1055.37 183.363L1064.66 177.98L1064.98 168.845L1070.43 163.299ZM793.474 139.32L800.526 143.561L808.54 137.526L805.976 134.263L794.596 136.547L793.474 139.32Z" fill="#A688BA"/>
<path fill-rule="evenodd" clip-rule="evenodd" d="M820.4 163.625L825.208 161.341L828.414 163.788L823.606 170.802L820.4 163.625ZM1045.43 312.229L1043.51 301.952L1034.05 287.434L1050.24 281.888L1049.92 275.853L1068.83 266.229L1073.32 267.044L1072.68 274.058L1081.01 276.505L1079.41 264.761L1085.18 267.207L1092.23 279.441L1097.68 283.52L1103.93 296.569L1095.28 312.229L1086.78 313.534L1076.84 304.236L1058.41 304.726L1057.77 309.619L1045.43 312.229ZM1026.68 247.306L1039.18 236.051L1042.22 247.959L1036.61 255.789L1032.29 256.441L1026.68 247.306ZM1009.37 236.214L1020.11 244.044L1019.14 248.611L1023.95 253.342L1024.43 261.009L1030.68 263.782L1024.43 265.902L1015.62 258.562L1011.77 249.427L1006.96 243.392L1010.97 241.76L1009.37 236.214ZM1070.43 163.299L1077.16 165.909L1070.43 170.965L1070.91 180.59L1056.65 189.561L1055.37 183.363L1064.66 177.98L1064.98 168.845L1070.43 163.299Z" fill="#E5C828"/>
<path d="M1099.92 297.548L1023.79 224.959L841.076 179.285L715.259 189.888" stroke="#9075A0" stroke-width="2" stroke-miterlimit="10"/>
<path fill-rule="evenodd" clip-rule="evenodd" d="M1033.25 225.122L1023.95 236.214L1014.82 224.633L1024.11 213.377L1033.25 225.122ZM1108.74 298.201L1099.76 309.293L1090.95 298.201L1099.92 286.945L1108.74 298.201ZM850.853 178.469L841.397 190.051L831.78 178.306L841.397 166.724L850.853 178.469ZM724.876 189.561L714.458 201.632L703.719 189.235L714.137 177.164L724.876 189.561Z" fill="#5EC0D9"/>
<path fill-rule="evenodd" clip-rule="evenodd" d="M1033.25 225.122L1023.95 236.214L1014.82 224.633L1024.11 213.377L1033.25 225.122Z" fill="#99C26D"/>
<path d="M806.617 280.257L795.558 311.577L768.952 336.208L754.046 359.371L757.412 372.095L743.307 367.527L740.903 345.506L744.109 311.087L757.412 302.605L785.781 275.527L806.617 280.257Z" fill="#E5C828"/>
<path d="M885.473 199.186L879.062 204.732L885.473 222.186H894.769L903.264 199.349L901.18 199.33L885.473 199.186Z" fill="#E5C828"/>
<path d="M901.18 199.33L903.264 199.349L907.591 191.519H902.783L901.18 199.33Z" fill="#E5C828"/>
<path d="M864.156 252.2L851.655 250.406L848.289 238.009H873.613L864.156 252.2Z" fill="#E5C828"/>
<path d="M533.985 236.214L533.344 248.938H547.929L547.288 233.604L533.985 236.214Z" fill="#A688BA"/>
<path d="M534.787 263.945L550.013 265.413L546.968 277.81L534.626 278.137L534.787 263.945Z" fill="#73CFE5"/>
<path d="M535.268 293.144L548.25 291.349L549.532 305.704L535.107 304.725L535.268 293.144Z" fill="#E5C828"/>
<path d="M534.947 317.775L551.616 321.038L547.929 334.74L536.71 334.903L534.947 317.775Z" fill="#99C26D"/>
<path d="M562.515 240.782L614.765 240.945" stroke="#A3A3A3" stroke-miterlimit="10"/>
<path d="M562.995 271.938L624.061 273.569M561.873 299.342L622.779 302.605M563.957 330.009L624.862 334.74" stroke="#A3A3A3" stroke-miterlimit="10"/>
<path d="M38.1055 483.12L117.202 489.609L224.588 477.336L114.515 474.712L38.1055 483.12Z" fill="black" fill-opacity="0.1"/>
<path d="M219.518 295.48L227.066 275.3L238.951 279.466L249.595 289.182L228.38 308.049L219.034 309.101L219.518 295.48Z" fill="#DFBCA4"/>
<path d="M231.862 288.823L224.556 268.714L218.204 268.84L219.518 295.48L215.267 310.051L225.375 302.012L231.862 288.823Z" fill="#C3977A"/>
<path d="M227.066 275.3L245.672 255.92L257.458 266.942L249.595 289.182L227.066 275.3Z" fill="#C3977A"/>
<path d="M156 277L184.861 291.558L180.74 303.11L169.053 316.822L140.684 345.924L148.705 302.224L156 277Z" fill="#3E8F6E"/>
<path d="M184.861 291.558L210.097 312.026L205.517 321.537L181.739 325.729L169.054 316.822L184.861 291.558Z" fill="#99C26C"/>
<path d="M181.739 325.729L219.563 295.067L239.185 315.454L203.224 340.682L181.739 325.729Z" fill="#738D56"/>
<path opacity="0.1" d="M258.097 474.576L134.81 465.021L26 475.691L135.062 487.999L258.097 474.576Z" fill="black"/>
<path d="M103.132 466.486L79.6945 475.672L75.6098 466.603L78.9117 451.497L86.1544 448.78L96.9418 452.19L103.132 466.486Z" fill="#4F5252"/>
<path d="M192.113 454.368L182.855 471.166L164.6 461.692L163.07 451.237L179.553 443.581L192.113 454.368Z" fill="#4F5252"/>
<path opacity="0.1" d="M180.219 444.147L164.601 461.691L163.07 451.236L168.46 445.434L180.219 444.147Z" fill="black"/>
<path opacity="0.1" d="M78.9117 451.498L88.3856 448.781L96.9418 452.192L76.9503 460.469L78.9117 451.498Z" fill="black"/>
<path d="M180.157 468.467L164.601 461.692L165.751 474.324L214.892 474.738L214.624 461.143L192.113 454.368L180.157 468.467Z" fill="#6E7073"/>
<path d="M112.39 480.693L112.129 466.063L90.5269 463.787L81.188 473.306L75.6098 466.603L74.98 480.693H112.39Z" fill="#6E7073"/>
<path d="M167.524 361.465L189.287 427.377L173.498 441.754L155.468 440.026L147.388 415.573L132.5 387.5L110.743 440.026L96.9427 448.782L74.2422 438.318L86.3711 379.5V339.998L167.524 361.465Z" fill="#7C7D7D"/>
<path d="M145.211 393.44L166.165 439.009L155.467 440.026L132.5 387.5L133.884 378.19L145.211 393.44Z" fill="#4F5253"/>
<path d="M189.288 427.377L155.468 440.027L163.07 451.238L193.57 440.351L189.288 427.377Z" fill="#4F5253"/>
<path d="M110.743 440.027L74.2423 438.318L74.1973 451.238L102.952 452.551L110.743 440.027Z" fill="#4F5253"/>
<path d="M28.8341 341.077L64.4805 365.19L74.1973 345.738L28.8341 341.077Z" fill="#4F5252"/>
<path d="M40.6472 245.16L117.617 245.844L140.537 247.401L105.129 261.867L75.7357 263.037L40.6472 245.16Z" fill="#C4C4C4"/>
<path d="M76.3926 257.099L40.6472 245.16L37.5343 270.496L37.3543 289.749L33.2966 304.864L28.8341 341.077L87.315 349.463L76.3926 257.099Z" fill="#6E7073"/>
<path d="M106.929 253.311L76.3925 257.099L74.917 270.478L69.8607 347.42L123.816 335.625L135.732 247.749L106.929 253.311Z" fill="#4F5252"/>
<path d="M37.5342 270.495L46.4773 276.155L59.3881 278.458L54.0259 314.572L33.2966 304.864L35.267 288.885L38.0201 282.165L37.5342 270.495Z" fill="#9DA0A1"/>
<path d="M59.3881 278.458L35.267 288.885L37.5343 270.495L59.3881 278.458Z" fill="#C4C4C4"/>
<path d="M156.322 276.929L161 320L167.524 361.465L148.5 373L133.884 378.19L117.5 375L93.451 359.036L86.5 344L85.5 312L104.656 262.038L130.675 257.977L156.322 276.929Z" fill="#738D56"/>
<path d="M85.5155 311.855V284.612L74.917 270.478L48.7086 330.488L67.1165 329.543L77.6791 323.714L85.5155 311.855Z" fill="#5A753C"/>
<path d="M105.129 261.867L74.917 270.478L85.5155 311.855L105.129 261.867Z" fill="#3E8F6E"/>
<path d="M93.451 359.036L99.1461 367.034L81.6018 382.554L74.4672 372.44L78.7318 360.808L93.451 359.036Z" fill="#C3977A"/>
<path d="M48.7086 330.487L69.4108 376.013L93.4509 359.035L77.6791 323.713L48.7086 330.487Z" fill="#99C26C"/>
<path d="M149.761 261.228L124.024 261.351L131.383 282.103L141.843 278.264L149.389 265.582L149.761 261.228Z" fill="#92644D"/>
<path d="M109.658 149.148L113.79 168.766L124.666 176.253L124.87 175.956L160.568 178.77L180.213 170.513L171.194 157.691L137.894 144.478L109.658 149.148Z" fill="#BE9A86"/>
<path d="M109.254 263.912L130.607 272.979L143.445 266.008L149.76 261.231L170.623 259.713L180.025 230.932L183.288 184.148L180.217 170.467L158.127 170.483L117.595 174.874L107.64 191.48L82.5433 195.845L92.0298 216.994L109.254 263.912Z" fill="#E6BBA1"/>
<path d="M92.0372 216.963L119.95 195.743L107.647 191.449L82.5507 195.814L92.0372 216.963Z" fill="#AA795C"/>
<path d="M129.119 261.299L127.573 189.05L124.709 175.504L110.687 187.596L104.518 206.587L89.4923 213.552L96.1874 230.602L99.5287 233.322L100.162 240.71L109.105 263.461L117.362 274.55L131.412 282.075L127.629 265.871L129.119 261.299Z" fill="#CB9676"/>
<path d="M82.5567 195.838L109.368 192.035L126.24 174.199L109.658 149.136L82.5567 195.838Z" fill="#AA7454"/>
<path d="M180.06 230.869L128.911 231.795L118.497 230.37L114.082 217.159L104.088 210.514L113.475 254.191L124.251 261.363L138.748 261.569L170.563 259.732L180.06 230.869Z" fill="#8A8078"/>
<path d="M96.2019 230.606L105.458 227.003L100.127 240.726L96.2019 230.606Z" fill="#92644D"/>
<path d="M94.6855 216.252L100.635 213.723L103.882 223.526L94.6855 216.252Z" fill="#92644D"/>
<path d="M162.368 226.645L154.178 226.6L153.968 200.57L162.165 200.611L162.368 226.645Z" fill="#EEC9B3"/>
<path d="M162.386 226.635L157.789 230.314L154.196 226.59L162.386 226.635Z" fill="#92644D"/>
<path d="M148.63 245.734L140.79 234.414L172.891 235.029L164.515 245.328L148.63 245.734Z" fill="white"/>
<path d="M142.787 235.471L170.808 236.012L164.004 244.348L149.135 244.726L142.747 235.506L142.787 235.471ZM138.8 233.392L141.105 236.654L147.485 245.877L148.118 246.784L149.218 246.757L164.083 246.371L164.996 246.359L165.602 245.624L172.352 237.311L175.002 234.064L170.818 234.006L142.838 233.429L138.848 233.353L138.8 233.392Z" fill="#CB9676"/>
<path d="M132.116 211.895L135.465 203.228L149.858 202.877L152.848 196.39L135.557 195.924L131.201 198.466L132.116 211.895Z" fill="#CB9676"/>
<path d="M178.089 196.682L168.683 203.38L166.541 212.489L162.808 196.415L178.089 196.682Z" fill="#CB9676"/>
<path d="M165.035 193.388L162.475 196.459L178.213 196.895L182.008 185.495L174.988 187.882L170.872 193.101L165.035 193.388Z" fill="#CB9676"/>
<path d="M151.795 192.977L152.953 196.524L134.988 196.052L146.693 190.325L151.795 192.977Z" fill="#CB9676"/>
<path d="M131.809 215.533L154.075 219.428L154.046 215.621L131.809 215.533Z" fill="#CB9676"/>
<path d="M162.305 219.694L180.742 215.008L162.278 216.584L162.305 219.694Z" fill="#CB9676"/>
<path d="M179.092 204.635C179.093 204.637 179.094 204.64 179.095 204.643C179.735 206.148 179.023 207.914 177.517 208.554C176.011 209.194 174.245 208.481 173.605 206.976C172.965 205.47 173.678 203.704 175.183 203.064C175.186 203.063 175.189 203.062 175.191 203.061C176.693 202.427 178.45 203.136 179.092 204.635Z" fill="black"/>
<path d="M148.641 204.241C148.642 204.244 148.643 204.247 148.644 204.249C149.284 205.755 148.572 207.521 147.065 208.161C145.56 208.801 143.793 208.088 143.154 206.583C142.513 205.076 143.227 203.311 144.732 202.671C144.734 202.67 144.738 202.668 144.74 202.667C146.242 202.034 147.999 202.743 148.641 204.241Z" fill="black"/>
<path d="M132.839 194.712L135.1 195.991L146.699 190.318L151.802 192.969L152.801 191.627L148.915 184.556L132.839 194.712Z" fill="#474747"/>
<path d="M165.046 193.402L170.883 193.116L174.999 187.896L182.018 185.51L174.139 184.791L165.046 193.402Z" fill="#474747"/>
</svg>
