<svg width="1004" height="411" viewBox="0 0 1004 411" fill="none" xmlns="http://www.w3.org/2000/svg">
<g clip-path="url(#clip0)">
<path opacity="0.1" fill-rule="evenodd" clip-rule="evenodd" d="M110 362.43L225.92 345L381.49 364.04L275.86 385.05L143.42 387.85L110 362.43Z" fill="black"/>
<path opacity="0.1" fill-rule="evenodd" clip-rule="evenodd" d="M601.67 345.29L651.96 331L719.79 348.84L647.13 367.4L577 351.33L601.67 345.29Z" fill="black"/>
<g opacity="0.1">
<path opacity="0.1" d="M784.114 343.923L662.393 361.006L538 341.788L667.73 328.977L784.114 343.923Z" fill="#292929"/>
</g>
<path d="M645.844 329.554L667.641 350.442L699.427 344.537L686.258 267.343L653.564 267.798L645.844 329.554Z" fill="#787879"/>
<path d="M636.763 264.619L617.237 343.631L667.641 350.442L670.82 267.342L636.763 264.619Z" fill="#939292"/>
<path d="M738.932 19.8657L771.741 0L793.195 14.4169L783.433 275.516L762.205 283.351L738.932 19.8657Z" fill="#88898A"/>
<path d="M771.74 0L574.554 13.6228L555.823 262.575L762.206 283.351L771.74 0Z" fill="#A5A5A5"/>
<path d="M651.52 294.361L645.844 347.261L636.537 346.127L647.435 293.453L651.52 294.361Z" fill="#787879"/>
<path d="M749.83 23.1578L740.976 258.49L576.825 244.186L591.81 32.6945L749.83 23.1578Z" fill="#ECECEB"/>
<g opacity="0.999999">
<path d="M642.212 237.6L643.122 222.842L634.038 222.161L634.946 211.036L615.422 209.901L614.966 219.891L605.657 219.21L604.296 234.195L642.212 237.6Z" fill="#79C8A7"/>
<path d="M729.453 70.64L720.996 48.8137L717.023 51.5373L710.666 37.5747L701.356 56.1921L697.425 51.1436L690.231 70.872L729.453 70.64Z" fill="#79C8A7"/>
<path d="M731.44 90.9305H642.213L641.759 97.2893L731.214 98.4232L731.44 90.9305Z" fill="#C5C5C5"/>
<path d="M731.098 109.889L642.042 108.641V114.941L730.873 117.382L731.098 109.889Z" fill="#C5C5C5"/>
<path d="M730.758 128.847L641.192 127.371L641.362 133.331L730.533 136.338L730.758 128.847Z" fill="#C5C5C5"/>
<path d="M687.393 191.625L598.393 186.289L598.112 192.249L687.055 197.415L687.393 191.625Z" fill="#C5C5C5"/>
<path d="M688.416 177.66L599.415 172.324L599.131 178.284L688.076 183.451L688.416 177.66Z" fill="#C5C5C5"/>
</g>
<g opacity="0.01">
<path d="M726.818 210.9L698.558 134.003L684.486 143.292L663.092 94.0416L629.377 158.624L615.929 140.717L589.55 209.316L726.818 210.9Z" fill="#79C8A7"/>
<path d="M705.299 61.5216H616.072L615.618 67.8805L705.073 69.0143L705.299 61.5216Z" fill="#C5C5C5"/>
<path d="M705.299 46.8172H616.072L615.618 53.1761L705.073 54.3099L705.299 46.8172Z" fill="#C5C5C5"/>
</g>
<path d="M306.192 185.955L261.364 196.263L267.951 257.729L270.052 275.643L329.181 222.194L306.192 185.955Z" fill="#9FA3A4"/>
<path d="M270.081 191.529L271.681 195.502L274.256 223.875L254.007 222.855L252.836 189.077L256.625 190.749L270.081 191.529Z" fill="#787879"/>
<path d="M197.727 195.329L187.008 279.469L143.94 283.963L144.801 191.386L191.849 196.304" fill="#9FA3A4"/>
<path d="M17.0689 331.536L24.3374 351.869L36.9765 348.504L41.0069 326.335L17.0689 331.536Z" fill="#88898A"/>
<path d="M149.682 194.018L147.651 200.038L153.683 273.537L138.456 267.646L132.196 192.765L149.682 194.018Z" fill="#787879"/>
<path d="M184.069 186.412L132.196 192.765L147.65 200.039L187.711 193.849L184.069 186.412Z" fill="#C5C5C5"/>
<path d="M135.968 325.219L75.9205 335.992L74.263 308.933L135.968 325.219Z" fill="#787879"/>
<path d="M116.443 347.862L109.916 360.869L101.655 357.848L94.0176 334.546L123.414 331.263L116.443 347.862Z" fill="#787879"/>
<path d="M47.0123 341.643C47.0396 342.537 56.4364 369.06 56.4364 369.06L72.7148 367.073L73.0865 342.932L105.027 336.89L109.916 360.872L122.572 358.101L128.155 350.484L126.148 321.051L90.9574 329.575L51.335 328.999L47.0123 341.643Z" fill="#88898A"/>
<path d="M19.4363 318.356L55.594 332.444L72.9485 302.122L36.2684 298.178L19.4363 318.356Z" fill="#88898A"/>
<path d="M26.443 212.383L0.343855 210.203L6.96747 344.38L24.3386 351.87L22.7499 336.128L41.6347 346.872L43.4638 361.414L56.4373 369.06L55.5939 332.444L24.6664 317.302L26.443 212.383Z" fill="#787879"/>
<path d="M13.3173 217.849L16.0309 222.037L24.6653 317.303L58.7129 307.622L42.7226 210.396L13.3173 217.849Z" fill="#9FA3A4"/>
<path d="M57.2626 202.801L51.3954 204.173L0.343905 210.203L16.0309 222.036L33.3502 217.833L64.8064 220.049L57.2626 202.801Z" fill="#C5C5C5"/>
<path d="M290.929 184.983L251.678 189.585L271.681 195.501L294.887 193.601L290.929 184.983Z" fill="#C5C5C5"/>
<path d="M352.941 223.356L362.704 234.676L364.645 237.795L349.632 254.042L331.841 245.848L343.421 226.03L352.941 223.356Z" fill="#87614C"/>
<path d="M328.132 215.075L341.062 203.211L362.704 234.674L347.943 238.006L323.071 230.722L328.132 215.075Z" fill="#ECECEB"/>
<path d="M331.742 224.5L347.943 238.006L342.616 272.131L277.002 272.945L269.151 233.563L331.742 224.5Z" fill="#437D65"/>
<path d="M323.626 194.511L341.063 203.213L347.943 238.006L277.896 238.758L277.626 205.798L291.114 195.505L323.626 194.511Z" fill="#4A9274"/>
<path d="M222.894 209.257L229.551 197.534L245.435 209.76L257.244 233.629L245.476 235.181L222.894 209.257Z" fill="#D0CFCE"/>
<path d="M235.947 225.541L246.776 235.438L239.4 265.951L187.073 269.537L179.718 240.369L235.947 225.541Z" fill="#9076A0"/>
<path d="M222.045 196.572L222.894 209.257L232.415 209.66L240.299 213.889L246.775 235.437L181.653 243.287L178.001 205.366L188.18 203.118L222.045 196.572Z" fill="#594266"/>
<path d="M237.438 178.461L242.7 174.172L237.179 175.934L232.985 176.212L228.461 175.022L232.226 178.715L237.438 178.461Z" fill="#FFFEFF"/>
<path d="M187.707 242.012L178.002 205.366L167.443 209.935L169.427 254.09L172.99 258.847L189.513 252.78L187.707 242.012Z" fill="#ECECEB"/>
<path d="M90.5288 372.378L95.1963 378.514L95.3658 384.057L63.6363 385.174L63.2046 379.932L90.5288 372.378Z" fill="#2B2B2B"/>
<path d="M80.982 353.105L87.3826 362.692L95.1964 378.514L63.2047 379.932L64.9249 365.13L80.982 353.105Z" fill="#6F6F6F"/>
<path d="M97.7509 288.932L108.431 292.337L116.227 293.867L134.319 295.115L136.944 309.927L130.266 322.396L83.5887 322.947L82.124 301.674L97.7509 288.932Z" fill="#388497"/>
<path d="M55.2423 310.382L38.6867 292.782L41.6768 319.557L55.6579 332.854L55.2423 310.382Z" fill="#4EC3E0"/>
<path d="M61.346 305.814L55.6579 332.854L64.9249 365.131L87.3826 362.693L91.9308 329.409L61.346 305.814Z" fill="#27788C"/>
<path d="M61.4139 272.521L85.9247 314.856L91.9308 329.409L55.6579 332.855L38.411 291.897L61.4139 272.521Z" fill="#3AA0BA"/>
<path d="M85.9246 314.855L69.9848 306.991L86.0419 293.397L99.6701 301.607L85.9246 314.855Z" fill="#2F7688"/>
<path d="M131.799 354.764L137.288 368.376L149.711 367.102L164.443 321.353L131.571 320.605L131.799 354.764Z" fill="#88898A"/>
<path d="M424.953 344.342L406.317 374.114L391.52 369.603L377.599 322.72L408.746 320.308L424.953 344.342Z" fill="#787879"/>
<path d="M253.038 300.732L212.509 392.889L194.394 386.432L190.948 366.139L137.812 349.294L137.287 368.376L122.172 363.178L116.264 284.668L253.038 300.732Z" fill="#787879"/>
<path d="M435.21 292.048L433.157 371.048L406.318 374.113L402.39 355.107L240.084 374.149L237.663 389.782L212.509 392.888L208.282 323.011L435.21 292.048Z" fill="#88898A"/>
<path d="M255.683 273.25L208.281 323.012L107.196 293.68L106.473 270.803L255.683 273.25Z" fill="#88898A"/>
<path d="M351.299 275L454.919 278.062L453.414 299.912L208.281 323.012L207.86 299.129L351.299 275Z" fill="#9FA3A4"/>
<path d="M326.136 257.079L106.473 270.803L207.86 299.128L454.918 278.061L326.136 257.079Z" fill="#C5C5C5"/>
<g opacity="0.1">
<path opacity="0.1" d="M326.136 257.079L106.473 270.804L127.886 276.788L174.419 272.401L231.758 283.266L234.222 269.959L281.518 266.65L303.926 274.269L326.136 257.079Z" fill="#292929"/>
</g>
<path d="M216.071 263.883L189.513 252.779L174.078 258.216L169.634 266.892L204.925 273.758L213.768 270.111L216.071 263.883Z" fill="#C49A7F"/>
<path d="M169.467 254.094L169.634 266.893L189.513 252.78L169.467 254.094Z" fill="#8F6C5A"/>
<path d="M224.165 265.919L234.035 262.639L244.12 275.439L231.757 283.265L216.727 276.276L224.165 265.919Z" fill="#C49A7F"/>
<path d="M216.071 263.883L234.036 262.64L216.728 276.276L204.925 273.758L216.071 263.883Z" fill="#DFBEA7"/>
<path d="M364.645 237.792L368.678 263.985L328.702 269.974L322.255 262.922L326.137 257.079L364.645 237.792Z" fill="#A98268"/>
<path d="M296.401 264.308L305.782 254.041L315.321 262.539L314.896 271.339L302.928 273.939L296.401 264.308Z" fill="#A98268"/>
<path d="M305.78 254.041L326.136 257.079L328.702 269.975L314.895 271.34L305.78 254.041Z" fill="#C09E87"/>
<path d="M259.773 184.993L266.367 178.735L256.695 139.945L254.32 145.236L253.792 179.729L259.773 184.993Z" fill="#757778"/>
<path d="M266.368 178.734L253.095 177.153L250.513 185.108L221.707 180.943L214.246 199.641L233.066 209.741L266.368 178.734Z" fill="#585B5B"/>
<path d="M169.481 167.356L176.425 176.169L186.797 199.641L188.182 203.119L178.003 205.368L169.481 167.356Z" fill="#585B5B"/>
<path d="M191.005 173.334L200.325 191.076L194.011 204.114L188.181 203.121L169.481 167.357L174.859 163.535L185.996 163.594L191.005 173.334Z" fill="#585B5B"/>
<path d="M219.748 211.985L240.3 213.889L225.492 191.502L204.055 196.923L192.593 193.451L188.182 203.118L198.436 224.503L219.748 211.985Z" fill="#ECECEB"/>
<path d="M253.239 152.422L240.172 113.837L258.078 120.398L266.479 142.415L261.637 159.91L253.239 152.422Z" fill="#585B5B"/>
<path d="M254.273 148.629L240.172 113.837L257.568 109.95L266.477 142.417L256.694 139.944L254.273 148.629Z" fill="#757778"/>
<path d="M175.896 118.089L184.381 134.183L185.696 157.336L186.815 167.169L169.482 167.358L175.896 118.089Z" fill="#757778"/>
<path d="M198.121 126.123L202.33 138.21L190.681 164.265L186.814 167.169L175.896 118.09L183.372 115.731L198.121 126.123Z" fill="#757778"/>
<path d="M222.707 122.922L228.091 118.049L218.025 97.474L197.267 96.1776L175.895 118.09L202.331 138.21L224.877 139.734L222.707 122.922Z" fill="#585B5B"/>
<path d="M243.307 109.752L230.362 96.5006L197.267 96.1776L224.795 118.841L234.236 121.044L242.76 118.612L243.307 109.752Z" fill="#757778"/>
<path d="M199.767 192.35L214.389 181.003L234.73 188.75L219.748 211.986L208.993 204.42L199.767 192.35Z" fill="#8F6C5A"/>
<path d="M189.096 175.456L192.593 193.451L208.993 204.419L202.116 191.608L207.502 191.167L224.505 187.092L210.247 177.949L202.332 138.21L190.396 161.939L189.096 175.456Z" fill="#C49A7F"/>
<path d="M207.501 191.168L255.618 188.623L256.695 139.946L242.759 118.612L224.892 118.868L202.33 138.212L207.501 191.168Z" fill="#DFBEA7"/>
<path d="M236.651 168.506L239.765 165.694L237.357 164.875L234.138 166.049L236.651 168.506Z" fill="#8F6C5A"/>
<path d="M224.626 150.389L234.139 166.048L235.576 156.418L233.428 150.075L230.983 144.635L221.161 142.576L213.263 145.383L224.626 150.389Z" fill="#C49A7F"/>
<path d="M239.943 144.381L238.346 149.639L237.197 155.977L239.766 165.692L246.867 149.188L253.315 143.992L247.875 141.08L239.943 144.381Z" fill="#C49A7F"/>
<path d="M196.333 143.636L202.33 138.21L197.926 155.314L192.356 158.91L192.206 147.504L196.333 143.636Z" fill="#585B5B"/>
<path d="M221.25 140.952L213.263 145.384L222.047 144.169L230.984 144.636L230.031 142.351L221.25 140.952Z" fill="#585B5B"/>
<path d="M253.315 143.992L247.883 140.227L240.773 142L239.944 144.382L246.335 143.517L253.315 143.992Z" fill="#585B5B"/>
<path d="M239.765 165.694L238.347 149.64L233.428 150.076L234.139 166.048L239.765 165.694Z" fill="#E9CCB9"/>
<path d="M189.096 175.456L194.914 164.388L190.681 164.263L185.594 166.172L189.096 175.456Z" fill="#8F6C5A"/>
<path d="M185.593 166.173L187.515 160.477L189.023 159.05L188.963 156.046L192.207 147.505L194.915 164.388L185.593 166.173Z" fill="#DFBEA7"/>
<path d="M188.962 156.045L190.396 161.939L187.513 160.477L188.962 156.045Z" fill="#8F6C5A"/>
<path d="M257.568 109.949L242.761 118.612L230.363 96.503L257.568 109.949Z" fill="#585B5B"/>
<path d="M246.419 152.026C245.103 152.142 243.936 151.08 243.822 149.664C243.71 148.248 244.69 146.999 246.006 146.882C247.323 146.767 248.489 147.827 248.602 149.244C248.716 150.66 247.735 151.91 246.419 152.026Z" fill="#3C3C3B"/>
<path d="M224.908 153.915C223.592 154.032 222.426 152.969 222.312 151.553C222.199 150.137 223.181 148.888 224.497 148.773C225.814 148.657 226.98 149.716 227.093 151.134C227.207 152.55 226.224 153.799 224.908 153.915Z" fill="#3C3C3B"/>
<path d="M245.718 172.754L238.172 181.282L232.938 181.192L224.241 173.452L235.194 175.671L245.718 172.754Z" fill="#B3889D"/>
<path d="M235.7 173.456L239.167 173.737L245.719 172.754L235.676 177.457L224.242 173.452L231.892 174.213L235.7 173.456Z" fill="#734D60"/>
<path d="M24.7896 249.696L17.8417 259.253L15.9902 263.787L34.1038 287.958L50.5348 257.086L24.7896 249.696Z" fill="#413632"/>
<path d="M104.664 239.758L128.145 235.245L152.206 249.693L137.045 268.847L113.016 264.325L104.664 239.758Z" fill="#7A584C"/>
<path d="M96.3732 261.622L102.676 219.085L128.145 235.243L113.016 264.325L96.3732 261.622Z" fill="#3AA0BA"/>
<path d="M33.6745 217.689L17.8429 259.252L41.5545 274.102L43.3934 251.133L33.6745 217.689Z" fill="#5EC0D9"/>
<path d="M52.9378 207.352L51.1064 235.977L55.1678 285.967L72.2712 295.221L86.1307 296.336L99.6691 301.607L108.432 292.338L102.674 219.086L91.9219 217.043L52.9378 207.352Z" fill="#5EC0D9"/>
<path d="M44.7919 214.539L33.6746 217.69L38.4112 291.897L69.9851 306.991L86.132 296.336L80.4545 252.575L73.6859 225.692L44.7919 214.539Z" fill="#3AA0BA"/>
<path d="M50.9845 204.456L44.7928 214.539L47.4733 241.929L70.9911 244.322L59.2729 216.85L50.9845 204.456Z" fill="#73CFE5"/>
<path d="M88.3453 243.793L98.8868 238.669L95.288 217.577L89.5364 210.603L81.5166 220.536L88.3453 243.793Z" fill="#73CFE5"/>
<path d="M51.4713 287.719L51.3937 296.969L43.1818 303.643L7.32953 285.369L15.9912 263.786L51.4713 287.719Z" fill="#5F473E"/>
<path d="M52.4504 296.059L68.6575 287.485L76.9882 302.416L69.1426 312.196L54.8808 307.473L52.4504 296.059Z" fill="#5F473E"/>
<path d="M68.6577 287.485L50.3838 286.876L43.1819 303.643L54.8821 307.472L68.6577 287.485Z" fill="#7A584C"/>
<path d="M118.364 126.635L120.628 149.09L125.392 199.047L98.4147 204.135L81.1534 220.454L83.4248 239.802L72.3863 245.233L44.1826 165.406L44.8198 156.067L54.1373 129.635L95.8732 128.872L118.364 126.635Z" fill="#7A584C"/>
<path d="M54.1385 129.635L70.5587 211.826L77.393 208.251L98.4147 204.134L89.4458 214.957L86.6505 227.534L88.3473 243.792L80.4554 252.576L70.9922 244.322L50.9855 204.456L44.8213 191.519L44.7708 184.644L39.8864 181.675L31.6782 165.789L44.8198 156.067L54.1385 129.635Z" fill="#5F473E"/>
<path d="M61.3957 210.032L98.4148 204.134L86.6506 227.535L61.3957 210.032Z" fill="#413632"/>
<path d="M39.8865 181.676L48.9222 178.335L44.8202 191.519L39.8865 181.676Z" fill="#413632"/>
<path d="M44.4634 174.589L42.086 166.7L37.2723 168.206L44.4634 174.589Z" fill="#413632"/>
<path d="M68.8415 131.067L54.1374 129.635L45.7155 130.41L32.2981 127.195L72.473 105.775L78.5952 121.029L68.8415 131.067Z" fill="#585B5B"/>
<path d="M38.037 146.177L35.3464 153.897L31.6771 165.79L44.9938 161.757L48.7787 173.68L55.0037 170.286L49.6216 151.26L38.037 146.177Z" fill="#3C3C3B"/>
<path d="M52.6163 137.032L45.0993 133.794L32.1134 138.686L31.9019 151.802L47.9822 147.622L52.6163 137.032Z" fill="#585B5B"/>
<path d="M52.6174 137.032L31.9019 151.802L31.6782 165.789L49.6228 151.26L52.6174 137.032Z" fill="#787879"/>
<path d="M80.0749 132.163L83.5422 118.027L93.5592 107.536L109.193 113.196L126.356 128.981L105.867 122.102L94.5777 133.577L80.0749 132.163Z" fill="#585B5B"/>
<path d="M94.5766 133.577L117.668 127.434L120.628 149.091L126.355 128.981L112.336 117.867L105.771 118.996L94.5766 133.577Z" fill="#3C3C3B"/>
<path d="M93.5592 107.535L105.772 118.996L126.357 128.98L111.046 108.995L93.5592 107.535Z" fill="#585B5B"/>
<path d="M93.5592 107.535L80.0761 132.163L68.8425 131.066L72.4752 105.773L93.5592 107.535Z" fill="#787879"/>
<path d="M32.2982 127.196L32.1134 138.687L52.6174 137.032L54.1386 129.636L32.2982 127.196Z" fill="#3C3C3B"/>
<path d="M110.54 180.348L84.4236 184.2L100.178 193.063L110.54 180.348Z" fill="#413632"/>
<path d="M105.591 183.032L90.9829 185.248L99.9344 190.006L105.591 183.032Z" fill="#D0CFCE"/>
<path d="M107.067 144.785L115.274 145.228L99.8986 169.848L92.8327 175.061L71.3346 151.36L80.4636 148.234L89.356 149.976L90.6876 155.556L96.3122 162.256L99.6018 154.543L99.3745 148.489L107.067 144.785Z" fill="#5F473E"/>
<path d="M103.797 157.32C103.86 159.363 105.451 160.97 107.349 160.912C109.247 160.854 110.735 159.153 110.673 157.11C110.61 155.068 109.021 153.459 107.123 153.517C105.225 153.575 103.735 155.278 103.797 157.32Z" fill="#3C3C3B"/>
<path d="M81.4877 160.282C81.5501 162.324 83.1402 163.933 85.0397 163.875C86.938 163.817 88.4257 162.114 88.3632 160.072C88.3008 158.03 86.7119 156.421 84.8136 156.479C82.9141 156.537 81.4253 158.24 81.4877 160.282Z" fill="#3C3C3B"/>
<path d="M99.6569 170.41L102.849 173.551L97.9083 177.866L92.8338 175.06L99.6569 170.41Z" fill="#413632"/>
<path d="M99.6019 154.543L102.85 173.551L92.8328 175.061L90.6866 155.556L99.6019 154.543Z" fill="#836255"/>
<path d="M114.892 141.146L98.7813 143.859L99.3746 148.491L115.274 145.228L114.892 141.146Z" fill="#3C3C3B"/>
<path d="M89.356 149.977L88.8224 145.205L70.8243 147.351L71.3347 151.361L89.356 149.977Z" fill="#3C3C3B"/>
<path d="M163.324 216.01L163.988 206.854L172.027 192.059L185.614 203.692L181.757 222.214L163.324 216.01Z" fill="#5F473E"/>
<path d="M154.246 217.471L163.987 206.854L181.756 222.212L165.318 231.576L153.888 236.598L154.246 217.471Z" fill="#413632"/>
<path d="M152.393 235.086L150.078 224.45L155.669 200.14L161.058 201.727L159.056 216.194L162.616 220.173L156.716 234.371L152.393 235.086Z" fill="#7A584C"/>
<path d="M165.318 231.576L152.084 272.28L127.862 267.375L150.079 224.449L165.318 231.576Z" fill="#5F473E"/>
<path d="M323.479 192.098L302.945 203.533L291.114 195.503L288.021 171.318L293.5 115.291C293.5 115.291 313.463 110.754 314.406 113.722C315.352 116.69 323.55 192.198 323.55 192.198L323.479 192.098Z" fill="#A98268"/>
<path d="M323.921 180.912L310.173 193.101L303.538 193.369L302.945 203.533L314.502 211.326L340.331 184.415L323.921 180.912Z" fill="#87614C"/>
<path d="M294.372 159.917L298.104 162.254L288.015 171.17L287.052 165.291L294.372 159.917Z" fill="#87614C"/>
<path d="M294.084 131.909L299.8 141.923L300.619 148.866L291.887 150.977L283.969 147.536L281.925 135.012L294.084 131.909Z" fill="#585B5B"/>
<path d="M296.16 116.817L304.685 119.301L299.802 141.922L281.925 135.012L280.427 120.685L296.16 116.817Z" fill="#88898A"/>
<path d="M309.431 112.455L304.685 119.301L280.428 120.685L292.473 96.966L309.431 112.455Z" fill="#585B5B"/>
<path d="M353.696 93.9276L329.865 90.6444L292.471 96.9648L305.075 120.183L353.696 93.9276Z" fill="#757778"/>
<path d="M346.632 112.19L357.43 111.054L363.944 117.748L355.103 140.269L346.632 112.19Z" fill="#757778"/>
<path d="M351.386 123.044L348.176 117.527L357.429 111.055L353.694 93.9301L304.685 119.301L351.386 123.044Z" fill="#585B5B"/>
<path d="M355.879 124.142L357.662 190.436L310.173 193.103L304.686 119.301L334.456 119.64L348.177 117.53L355.879 124.142Z" fill="#C09E87"/>
<path d="M341.777 141.351L339.783 143.569L337.474 147.457L336.211 149.882L332.707 148.31L328.582 144.547L323.663 142.834L316.344 142.392L315.605 144.329L321.935 150.932L331.412 163.404L335.689 157.966L337.283 161.401L346.37 148.767L350.964 141.334L347.821 139.163L341.777 141.351Z" fill="#A98268"/>
<path d="M338.89 160.488L340.161 163.136L334.869 167.432L331.412 163.404L338.89 160.488Z" fill="#87614C"/>
<path d="M350.964 141.334L339.784 143.569L341.864 138.765L350.089 138.364L350.964 141.334Z" fill="#585B5B"/>
<path d="M324.161 139.528L328.581 144.548L315.604 144.33L315.892 140.824L324.161 139.528Z" fill="#585B5B"/>
<path d="M338.604 145.499L340.162 163.137L331.413 163.405L330.433 146.175L338.604 145.499Z" fill="#CAAF9E"/>
<path d="M295.656 145.058L283.969 147.535L287.052 165.291L298.106 162.253L295.656 145.058Z" fill="#C09E87"/>
<path d="M288.604 150.893L293.401 149.771L294.406 157.2L288.604 150.893Z" fill="#87614C"/>
<path d="M344.582 170.68L323.202 171.728L328.28 181.692L342.275 181.142L344.582 170.68Z" fill="#87614C"/>
<path d="M341.943 172.472L326.288 173.224L327.804 175.993L341.293 175.247L341.943 172.472Z" fill="#FFFEFF"/>
<path d="M345.353 144.206C343.891 143.966 342.534 145.045 342.318 146.616C342.103 148.183 343.109 149.649 344.572 149.889C346.032 150.128 347.387 149.05 347.603 147.483C347.819 145.912 346.811 144.443 345.353 144.206Z" fill="#3C3C3B"/>
<path d="M323.71 146.202C322.246 145.962 320.892 147.038 320.676 148.609C320.46 150.18 321.465 151.643 322.929 151.882C324.388 152.122 325.743 151.046 325.96 149.475C326.175 147.905 325.168 146.441 323.71 146.202Z" fill="#3C3C3B"/>
<path d="M294.59 205.079L281.518 266.65L234.036 262.64L245.49 202.411L294.59 205.079Z" fill="#ECECEB"/>
<path d="M285.543 226.21L291.793 218.33L294.212 234.982L285.592 247.062L285.543 226.21Z" fill="#DFBEA7"/>
<path d="M291.775 218.274L275.97 225.609L279.358 241.295L285.593 247.062L291.775 218.274Z" fill="#C49A7F"/>
<path d="M1004.09 388.12L924.997 394.609L817.612 382.336L927.684 379.712L1004.09 388.12Z" fill="black" fill-opacity="0.1"/>
<path d="M837.7 332.5L830.854 288.148H872.359L879.912 310.903L868.429 336.133L847.407 334.308L837.7 332.5Z" fill="#3A3A3A"/>
<path d="M868.416 336.148L862.138 363.685L848.239 367.665L839.527 358.615L837.7 332L868.416 336.148Z" fill="#474747"/>
<path d="M839.537 358.601L819.309 376.709L843.365 380.934L862.309 376.709L862.149 363.671L839.537 358.601Z" fill="#8EC361"/>
<path d="M819.309 376.724H862.309V382.343H819.309V376.724Z" fill="#6C8E50"/>
<path d="M905.7 325.5L910.272 290.138H868.767L861.213 312.893L872.696 338.124L893.719 336.298L905.7 325.5Z" fill="#3A3A3A"/>
<path d="M872.71 338.138L878.988 365.676L892.887 369.655L901.599 360.606L905.7 325.5L872.71 338.138Z" fill="#474747"/>
<path d="M901.589 360.592L921.817 378.699L897.761 382.924L878.817 378.699L878.977 365.661L901.589 360.592Z" fill="#8EC361"/>
<path d="M921.817 378.714H878.817V384.333H921.817V378.714Z" fill="#6C8E50"/>
<path d="M831.2 288L872.746 325.205L910.2 290L831.2 288Z" fill="#242323"/>
<path d="M850.698 184.748L876.435 184.871L869.076 205.623L858.616 201.784L851.069 189.102L850.698 184.748Z" fill="#92644D"/>
<path d="M890.801 72.6683L886.669 92.2856L875.793 99.7733L875.589 99.4755L839.891 102.29L820.245 94.0327L829.265 81.2106L862.565 67.9976L890.801 72.6683Z" fill="#BE9A86"/>
<path d="M891.204 187.432L869.852 196.499L857.014 189.528L850.699 184.751L829.835 183.233L820.434 154.452L817.171 107.667L820.242 93.9863L842.332 94.003L882.864 98.3935L892.819 115L917.915 119.365L908.429 140.514L891.204 187.432Z" fill="#E6BBA1"/>
<path d="M908.421 140.483L880.509 119.263L892.811 114.969L917.908 119.334L908.421 140.483Z" fill="#AA795C"/>
<path d="M871.339 184.819L872.885 112.57L875.75 99.024L889.772 111.116L895.94 130.107L910.966 137.072L904.271 154.121L900.93 156.842L900.297 164.23L891.353 186.981L883.097 198.07L869.047 205.595L872.83 189.391L871.339 184.819Z" fill="#CB9676"/>
<path d="M917.902 119.358L891.091 115.555L874.218 97.7188L890.801 72.6556L917.902 119.358Z" fill="#AA7454"/>
<path d="M820.398 154.389L871.548 155.315L881.961 153.89L886.377 140.679L896.371 134.034L886.984 177.71L876.208 184.883L861.711 185.089L829.895 183.252L820.398 154.389Z" fill="#8A8078"/>
<path d="M904.257 154.126L895 150.522L900.332 164.246L904.257 154.126Z" fill="#92644D"/>
<path d="M905.773 139.771L899.824 137.243L896.576 147.045L905.773 139.771Z" fill="#92644D"/>
<path d="M838.09 150.165L846.28 150.12L846.491 124.09L838.293 124.131L838.09 150.165Z" fill="#EEC9B3"/>
<path d="M838.072 150.155L842.669 153.834L846.263 150.11L838.072 150.155Z" fill="#92644D"/>
<path d="M851.828 169.254L859.669 157.934L827.568 158.549L835.943 168.848L851.828 169.254Z" fill="white"/>
<path d="M857.672 158.99L829.651 159.531L836.455 167.867L851.323 168.246L857.712 159.026L857.672 158.99ZM861.658 156.911L859.354 160.174L852.973 169.397L852.34 170.303L851.241 170.277L836.376 169.89L835.463 169.879L834.857 169.144L828.107 160.831L825.456 157.584L829.64 157.525L857.621 156.949L861.61 156.873L861.658 156.911Z" fill="#CB9676"/>
<path d="M868.343 135.415L864.994 126.748L850.6 126.396L847.61 119.91L864.902 119.444L869.257 121.986L868.343 135.415Z" fill="#CB9676"/>
<path d="M822.37 120.202L831.775 126.9L833.918 136.009L837.651 119.935L822.37 120.202Z" fill="#CB9676"/>
<path d="M835.424 116.907L837.984 119.979L822.246 120.415L818.451 109.015L825.47 111.401L829.587 116.621L835.424 116.907Z" fill="#CB9676"/>
<path d="M848.664 116.496L847.505 120.044L865.471 119.572L853.766 113.845L848.664 116.496Z" fill="#CB9676"/>
<path d="M868.65 139.053L846.383 142.948L846.413 139.141L868.65 139.053Z" fill="#CB9676"/>
<path d="M838.153 143.214L819.717 138.528L838.18 140.104L838.153 143.214Z" fill="#CB9676"/>
<path d="M821.367 128.155C821.366 128.157 821.365 128.16 821.364 128.162C820.724 129.668 821.436 131.434 822.942 132.074C824.448 132.714 826.214 132.001 826.854 130.496C827.494 128.989 826.781 127.224 825.275 126.584C825.273 126.583 825.27 126.582 825.267 126.581C823.766 125.947 822.008 126.656 821.367 128.155Z" fill="black"/>
<path d="M851.818 127.761C851.817 127.764 851.816 127.767 851.815 127.769C851.175 129.275 851.887 131.041 853.393 131.681C854.899 132.321 856.665 131.608 857.305 130.102C857.945 128.596 857.232 126.83 855.727 126.191C855.724 126.19 855.721 126.188 855.719 126.187C854.217 125.554 852.46 126.263 851.818 127.761Z" fill="black"/>
<path d="M867.619 118.231L865.359 119.511L853.759 113.838L848.657 116.489L847.658 115.147L851.544 108.076L867.619 118.231Z" fill="#474747"/>
<path d="M835.413 116.922L829.576 116.636L825.46 111.416L818.44 109.029L826.32 108.311L835.413 116.922Z" fill="#474747"/>
<path d="M862.782 226.693L869.469 253.813L906.7 245.5L906.7 239.5L907.7 200L891.724 188L869.247 203.993L862.782 226.693Z" fill="#8EC361"/>
<path d="M851.2 189.5L869.274 204.012L869.336 216.669L869.331 216.658L869.495 253.832L845.914 255.502L833.7 248L834.7 200.5L851.2 189.5Z" fill="#B8DC84"/>
<path d="M881.608 250.788L906.7 245.5L910.7 290L868.983 302.603L868.983 253.5L881.608 250.788Z" fill="#8CB461"/>
<path d="M920.451 267.781L910.163 277.007L916.929 294.894L920.451 267.781Z" fill="#CB9676"/>
<path d="M936.85 268.654L937.336 286.608L924.68 289.499L916.984 284.651L920.448 267.791L936.85 268.654Z" fill="#EEC9B3"/>
<path d="M937.338 286.582L926.874 302.548L913.392 301.209L916.986 284.625L937.338 286.582Z" fill="#CB9676"/>
<path d="M900.092 193.945L948.698 230.627L929.944 246.749L906.7 239.5L903.239 217.971L900.092 193.945Z" fill="#8CB461"/>
<path d="M833.7 247.5L869.464 253.816L869.731 264.892L868.966 302.581L830.351 287.365L833.7 247.5Z" fill="#B8DC84"/>
<path d="M920.7 244L920.7 253L919.7 267.5L937.7 268.5L949.2 230.5L920.7 244Z" fill="#9CC372"/>
<path d="M794.307 237.412L766.291 227.51L765.265 259.321L810.306 261.466L794.307 237.412Z" fill="#78905F"/>
<path d="M835.241 200.512L813.192 220.177L817.277 231.638L828.868 245.246L834.2 240L835.241 200.512Z" fill="#8CB461"/>
<path d="M813.193 220.175L794.309 237.412L784.445 254.079L810.306 261.468L828.868 245.246L813.193 220.175Z" fill="#9CC372"/>
<path d="M766.891 228.044L750.637 222.077L741.931 226.858L753.408 244.603L767.317 243.294L766.891 228.044Z" fill="#8F6C5A"/>
<path d="M757.256 253.684L707.948 160.661L713.285 158.301L763.363 250.246L757.256 253.684Z" fill="#585B5B"/>
<path d="M748.597 220.922L734.32 223.002L744.018 245.783L759.911 243.436L748.597 220.922Z" fill="#C49A7F"/>
<path d="M754.87 233.353L741.915 219.461L744.224 214.894L766.893 228.045L766.124 236.712L754.87 233.353Z" fill="#DFBEA7"/>
</g>
<defs>
<clipPath id="clip0">
<rect width="1004" height="411" fill="white"/>
</clipPath>
</defs>
</svg>
